<svg width="2000px" height="1012px"
 viewBox="0.00 0.00 1075.08 544.49" xmlns="http://www.w3.org/2000/svg" xmlns:xlink="http://www.w3.org/1999/xlink">
<g id="graph0" class="graph" transform="scale(1.0 1.0) rotate(0) translate(4 540.49)">
<title>ContextMapGraph</title>
<polygon fill="white" stroke="transparent" points="-4,4 -4,-540.49 1071.08,-540.49 1071.08,4 -4,4"/>
<!-- DataOpsContext -->
<g id="node1" class="node">
<title>DataOpsContext</title>
<polygon fill="none" stroke="black" stroke-width="2" points="240.03,-168.21 245.06,-165.95 250.32,-163.78 255.81,-161.7 261.49,-159.74 267.36,-157.89 273.38,-156.16 279.53,-154.57 285.8,-153.11 292.16,-151.8 298.59,-150.63 305.08,-149.62 311.6,-148.76 318.13,-148.06 324.66,-147.53 331.17,-147.15 337.64,-146.95 344.05,-146.9 350.38,-147.02 356.64,-147.3 362.79,-147.74 368.82,-148.34 374.73,-149.09 380.51,-149.98 386.13,-151.02 391.6,-152.19 396.9,-153.5 402.02,-154.92 406.95,-156.47 411.7,-158.12 416.24,-159.88 420.58,-161.72 424.72,-163.65 428.63,-165.66 432.32,-167.73 435.79,-169.87 439.03,-172.05 442.03,-174.28 444.79,-176.53 447.31,-178.82 449.59,-181.12 451.61,-183.43 453.38,-185.74 454.9,-188.05 456.15,-190.35 457.14,-192.63 457.86,-194.89 458.31,-197.11 458.49,-199.31 458.39,-201.46 458.01,-203.57 457.34,-205.63 456.39,-207.65 455.16,-209.61 453.64,-211.51 451.82,-213.36 449.72,-215.15 447.33,-216.87 444.64,-218.53 441.67,-220.13 438.41,-221.66 434.87,-223.12 431.04,-224.52 426.94,-225.85 422.57,-227.11 417.93,-228.3 413.04,-229.42 407.9,-230.47 402.53,-231.45 396.92,-232.36 391.11,-233.19 385.09,-233.95 378.88,-234.64 372.51,-235.25 365.98,-235.79 359.31,-236.25 352.53,-236.62 345.65,-236.92 338.7,-237.13 331.69,-237.26 324.65,-237.29 317.59,-237.24 310.56,-237.1 303.56,-236.86 296.62,-236.53 289.77,-236.1 283.03,-235.57 276.43,-234.94 269.98,-234.2 263.72,-233.37 257.67,-232.42 251.84,-231.37 246.27,-230.21 240.97,-228.95 235.97,-227.58 231.27,-226.11 226.91,-224.53 222.89,-222.85 219.24,-221.07 215.96,-219.19 213.07,-217.22 210.57,-215.16 208.49,-213.02 206.81,-210.79 205.56,-208.5 204.73,-206.13 204.33,-203.71 204.34,-201.23 204.78,-198.7 205.64,-196.14 206.91,-193.55 208.59,-190.94 210.67,-188.33 213.13,-185.71 215.96,-183.1 219.16,-180.51 222.71,-177.95 226.58,-175.43 230.77,-172.96 235.26,-170.55 240.03,-168.21"/>
<text text-anchor="middle" x="338.09" y="-191.74" font-family="sans-serif" font-size="16.00">DataOpsContext</text>
</g>
<!-- FinancialContext -->
<g id="node2" class="node">
<title>FinancialContext</title>
<polygon fill="none" stroke="black" stroke-width="2" points="111.47,-385.1 103.33,-384.56 95.3,-383.91 87.43,-383.14 79.75,-382.26 72.28,-381.28 65.06,-380.19 58.11,-379 51.47,-377.71 45.15,-376.32 39.18,-374.85 33.58,-373.29 28.38,-371.65 23.58,-369.93 19.2,-368.14 15.25,-366.28 11.75,-364.36 8.69,-362.38 6.09,-360.35 3.95,-358.27 2.26,-356.15 1.03,-354 0.25,-351.81 -0.09,-349.61 0.01,-347.38 0.54,-345.14 1.47,-342.9 2.81,-340.65 4.54,-338.41 6.63,-336.18 9.07,-333.96 11.85,-331.76 14.94,-329.6 18.33,-327.46 22,-325.37 25.92,-323.31 30.07,-321.31 34.44,-319.36 39.01,-317.47 43.75,-315.64 48.66,-313.89 53.7,-312.2 58.86,-310.6 64.13,-309.07 69.49,-307.63 74.93,-306.29 80.43,-305.03 85.97,-303.88 91.56,-302.83 97.17,-301.88 102.8,-301.03 108.43,-300.3 114.07,-299.68 119.71,-299.17 125.33,-298.78 130.93,-298.5 136.51,-298.34 142.06,-298.3 147.58,-298.38 153.07,-298.58 158.52,-298.9 163.93,-299.34 169.29,-299.89 174.61,-300.57 179.87,-301.36 185.07,-302.26 190.21,-303.27 195.29,-304.4 200.28,-305.63 205.2,-306.96 210.03,-308.39 214.76,-309.92 219.39,-311.54 223.9,-313.25 228.28,-315.04 232.52,-316.91 236.6,-318.85 240.52,-320.86 244.26,-322.94 247.8,-325.06 251.14,-327.24 254.24,-329.46 257.1,-331.72 259.7,-334.01 262.03,-336.33 264.06,-338.66 265.78,-341 267.18,-343.35 268.24,-345.69 268.95,-348.03 269.29,-350.34 269.25,-352.64 268.81,-354.9 267.98,-357.13 266.74,-359.31 265.09,-361.45 263.01,-363.53 260.51,-365.55 257.59,-367.5 254.25,-369.37 250.48,-371.17 246.31,-372.89 241.72,-374.52 236.75,-376.05 231.39,-377.49 225.66,-378.82 219.58,-380.05 213.17,-381.18 206.44,-382.19 199.43,-383.09 192.16,-383.87 184.65,-384.54 176.93,-385.09 169.03,-385.51 160.99,-385.82 152.83,-386 144.59,-386.06 136.3,-386 127.99,-385.82 119.71,-385.52 111.47,-385.1"/>
<text text-anchor="middle" x="137.09" y="-338.27" font-family="sans-serif" font-size="16.00">FinancialContext</text>
</g>
<!-- IngenieriaDatosContext -->
<g id="node3" class="node">
<title>IngenieriaDatosContext</title>
<polygon fill="none" stroke="black" stroke-width="2" points="346.15,-312.75 353.23,-310.57 360.61,-308.48 368.25,-306.5 376.14,-304.62 384.24,-302.87 392.52,-301.24 400.96,-299.75 409.52,-298.39 418.17,-297.19 426.89,-296.13 435.65,-295.23 444.42,-294.49 453.18,-293.91 461.9,-293.49 470.55,-293.23 479.13,-293.14 487.59,-293.22 495.93,-293.45 504.12,-293.85 512.15,-294.41 520,-295.12 527.65,-295.98 535.08,-296.99 542.3,-298.13 549.28,-299.42 556.01,-300.83 562.48,-302.36 568.69,-304 574.62,-305.76 580.27,-307.61 585.63,-309.54 590.69,-311.56 595.46,-313.66 599.92,-315.81 604.07,-318.02 607.91,-320.28 611.43,-322.58 614.62,-324.9 617.5,-327.25 620.04,-329.61 622.25,-331.97 624.13,-334.33 625.67,-336.69 626.87,-339.02 627.72,-341.33 628.22,-343.62 628.38,-345.87 628.18,-348.08 627.62,-350.25 626.69,-352.37 625.41,-354.43 623.76,-356.44 621.74,-358.39 619.36,-360.28 616.6,-362.11 613.47,-363.87 609.97,-365.56 606.1,-367.18 601.86,-368.73 597.26,-370.22 592.29,-371.62 586.97,-372.96 581.3,-374.22 575.28,-375.41 568.93,-376.52 562.25,-377.56 555.27,-378.52 547.98,-379.41 540.41,-380.22 532.57,-380.96 524.47,-381.61 516.15,-382.19 507.62,-382.69 498.9,-383.11 490.02,-383.45 481,-383.7 471.86,-383.87 462.64,-383.96 453.37,-383.96 444.07,-383.87 434.78,-383.68 425.53,-383.41 416.34,-383.04 407.25,-382.58 398.3,-382.02 389.51,-381.36 380.93,-380.61 372.57,-379.75 364.48,-378.79 356.68,-377.73 349.2,-376.56 342.08,-375.3 335.34,-373.93 329.01,-372.46 323.11,-370.88 317.67,-369.22 312.7,-367.45 308.23,-365.59 304.28,-363.64 300.86,-361.6 297.97,-359.48 295.65,-357.29 293.88,-355.02 292.69,-352.68 292.06,-350.28 292,-347.84 292.52,-345.34 293.6,-342.81 295.24,-340.25 297.43,-337.66 300.16,-335.07 303.42,-332.47 307.19,-329.88 311.44,-327.3 316.18,-324.75 321.36,-322.24 326.97,-319.77 332.99,-317.36 339.39,-315.02 346.15,-312.75"/>
<text text-anchor="middle" x="470.09" y="-338.27" font-family="sans-serif" font-size="16.00">IngenieriaDatosContext</text>
</g>
<!-- IngenieriaDatosContext&#45;&gt;DataOpsContext -->
<g id="edge1" class="edge">
<title>IngenieriaDatosContext&#45;&gt;DataOpsContext</title>
<path fill="none" stroke="black" stroke-width="2" d="M428.68,-295.74C410.99,-276.37 390.55,-253.98 373.56,-235.38"/>
<text text-anchor="middle" x="483.59" y="-265.76" font-family="sans-serif" font-size="12.00"> &#160;&#160;&#160;&#160;&#160;&#160;&#160;&#160;&#160;&#160;&#160;&#160;&#160;&#160;&#160;&#160;&#160;&#160;&#160;&#160;&#160;&#160;&#160;&#160;&#160;&#160;&#160;&#160;&#160;&#160;&#160;&#160;&#160;&#160;&#160;&#160;&#160;&#160;&#160;</text>
<polygon fill="white" stroke="transparent" points="366.56,-226.38 366.56,-243.38 380.56,-243.38 380.56,-226.38 366.56,-226.38"/>
<text text-anchor="start" x="368.56" y="-231.78" font-family="sans-serif" font-size="12.00">D</text>
<polygon fill="white" stroke="transparent" points="421.68,-286.74 421.68,-303.74 435.68,-303.74 435.68,-286.74 421.68,-286.74"/>
<text text-anchor="start" x="423.68" y="-292.14" font-family="sans-serif" font-size="12.00">U</text>
</g>
<!-- IngenieriaSoftwareContext -->
<g id="node4" class="node">
<title>IngenieriaSoftwareContext</title>
<polygon fill="none" stroke="black" stroke-width="2" points="773.97,-156.43 784.71,-157.68 795.16,-159.02 805.28,-160.46 815.01,-161.99 824.33,-163.6 833.19,-165.3 841.56,-167.06 849.41,-168.9 856.7,-170.79 863.4,-172.74 869.5,-174.74 874.97,-176.79 879.79,-178.87 883.95,-180.98 887.44,-183.12 890.24,-185.29 892.36,-187.46 893.79,-189.65 894.53,-191.84 894.59,-194.03 893.99,-196.21 892.73,-198.38 890.82,-200.53 888.29,-202.67 885.15,-204.77 881.43,-206.85 877.15,-208.89 872.34,-210.9 867.03,-212.86 861.25,-214.77 855.03,-216.63 848.4,-218.44 841.39,-220.19 834.05,-221.89 826.39,-223.51 818.46,-225.07 810.29,-226.55 801.91,-227.96 793.35,-229.3 784.65,-230.55 775.83,-231.72 766.93,-232.81 757.96,-233.8 748.97,-234.71 739.97,-235.52 730.98,-236.23 722.03,-236.85 713.13,-237.37 704.31,-237.78 695.58,-238.09 686.96,-238.29 678.46,-238.39 670.08,-238.37 661.85,-238.25 653.77,-238.02 645.84,-237.67 638.08,-237.21 630.49,-236.64 623.08,-235.96 615.85,-235.17 608.81,-234.26 601.96,-233.25 595.29,-232.13 588.83,-230.9 582.57,-229.57 576.52,-228.13 570.68,-226.6 565.05,-224.97 559.65,-223.25 554.48,-221.44 549.55,-219.55 544.87,-217.57 540.44,-215.53 536.28,-213.41 532.4,-211.24 528.82,-209 525.53,-206.72 522.57,-204.39 519.93,-202.03 517.64,-199.64 515.72,-197.22 514.18,-194.79 513.03,-192.36 512.28,-189.92 511.97,-187.5 512.09,-185.09 512.68,-182.71 513.72,-180.36 515.25,-178.05 517.28,-175.79 519.8,-173.59 522.84,-171.45 526.39,-169.38 530.46,-167.39 535.06,-165.48 540.18,-163.66 545.82,-161.95 551.98,-160.33 558.65,-158.82 565.82,-157.43 573.47,-156.15 581.58,-154.99 590.15,-153.96 599.15,-153.06 608.54,-152.28 618.32,-151.64 628.44,-151.13 638.87,-150.75 649.58,-150.52 660.53,-150.41 671.68,-150.44 683,-150.6 694.43,-150.9 705.93,-151.32 717.47,-151.87 728.99,-152.55 740.44,-153.35 751.79,-154.26 762.98,-155.29 773.97,-156.43"/>
<text text-anchor="middle" x="692.09" y="-191.74" font-family="sans-serif" font-size="16.00">IngenieriaSoftwareContext</text>
</g>
<!-- IngenieriaDatosContext&#45;&gt;IngenieriaSoftwareContext -->
<g id="edge2" class="edge">
<title>IngenieriaDatosContext&#45;&gt;IngenieriaSoftwareContext</title>
<path fill="none" stroke="black" stroke-width="2" d="M537.3,-297.32C566.91,-278.04 601.46,-255.54 630.41,-236.7"/>
<text text-anchor="middle" x="663.59" y="-265.76" font-family="sans-serif" font-size="12.00"> &#160;&#160;&#160;&#160;&#160;&#160;&#160;&#160;&#160;&#160;&#160;&#160;&#160;&#160;&#160;&#160;&#160;&#160;&#160;&#160;&#160;&#160;&#160;&#160;&#160;&#160;&#160;&#160;&#160;&#160;&#160;&#160;&#160;&#160;&#160;&#160;&#160;&#160;&#160;</text>
<polygon fill="white" stroke="transparent" points="623.41,-227.7 623.41,-244.7 637.41,-244.7 637.41,-227.7 623.41,-227.7"/>
<text text-anchor="start" x="625.41" y="-233.1" font-family="sans-serif" font-size="12.00">D</text>
<polygon fill="white" stroke="transparent" points="530.3,-288.32 530.3,-305.32 544.3,-305.32 544.3,-288.32 530.3,-288.32"/>
<text text-anchor="start" x="532.3" y="-293.72" font-family="sans-serif" font-size="12.00">U</text>
</g>
<!-- TecnologiaContext -->
<g id="node5" class="node">
<title>TecnologiaContext</title>
<polygon fill="none" stroke="black" stroke-width="2" points="384.17,-61.92 381.39,-59.2 378.99,-56.46 376.98,-53.72 375.36,-50.98 374.14,-48.25 373.34,-45.55 372.96,-42.88 373,-40.25 373.47,-37.68 374.36,-35.17 375.68,-32.72 377.42,-30.36 379.59,-28.08 382.16,-25.9 385.15,-23.81 388.54,-21.82 392.31,-19.95 396.46,-18.18 400.98,-16.53 405.84,-15 411.03,-13.59 416.55,-12.3 422.35,-11.13 428.44,-10.09 434.78,-9.16 441.35,-8.36 448.14,-7.68 455.11,-7.12 462.25,-6.67 469.53,-6.34 476.92,-6.11 484.4,-6 491.95,-5.99 499.53,-6.08 507.13,-6.27 514.73,-6.56 522.28,-6.94 529.78,-7.4 537.2,-7.95 544.51,-8.58 551.69,-9.28 558.73,-10.07 565.6,-10.92 572.28,-11.84 578.76,-12.83 585.01,-13.88 591.03,-15 596.79,-16.17 602.28,-17.41 607.49,-18.7 612.41,-20.04 617.03,-21.44 621.33,-22.9 625.32,-24.4 628.98,-25.96 632.31,-27.56 635.31,-29.22 637.96,-30.92 640.27,-32.67 642.24,-34.47 643.87,-36.31 645.15,-38.2 646.09,-40.13 646.68,-42.09 646.94,-44.1 646.87,-46.14 646.46,-48.21 645.73,-50.31 644.67,-52.44 643.3,-54.59 641.61,-56.76 639.63,-58.93 637.34,-61.12 634.76,-63.3 631.9,-65.48 628.76,-67.66 625.35,-69.81 621.68,-71.94 617.75,-74.03 613.58,-76.09 609.18,-78.1 604.54,-80.05 599.69,-81.94 594.62,-83.76 589.36,-85.5 583.91,-87.15 578.28,-88.71 572.48,-90.16 566.52,-91.5 560.41,-92.72 554.17,-93.82 547.81,-94.78 541.34,-95.6 534.78,-96.29 528.13,-96.82 521.42,-97.2 514.65,-97.42 507.84,-97.48 501.02,-97.38 494.18,-97.11 487.36,-96.68 480.57,-96.08 473.83,-95.32 467.14,-94.4 460.54,-93.32 454.05,-92.08 447.67,-90.69 441.43,-89.15 435.35,-87.47 429.44,-85.66 423.73,-83.71 418.24,-81.65 412.98,-79.47 407.97,-77.2 403.23,-74.82 398.78,-72.37 394.63,-69.84 390.81,-67.25 387.31,-64.6 384.17,-61.92"/>
<text text-anchor="middle" x="514.09" y="-45.06" font-family="sans-serif" font-size="16.00">TecnologiaContext</text>
</g>
<!-- IngenieriaSoftwareContext&#45;&gt;TecnologiaContext -->
<g id="edge3" class="edge">
<title>IngenieriaSoftwareContext&#45;&gt;TecnologiaContext</title>
<path fill="none" stroke="black" stroke-width="2" d="M638.2,-150.74C615.18,-132.03 588.42,-110.28 565.66,-91.78"/>
<text text-anchor="middle" x="684.59" y="-119.12" font-family="sans-serif" font-size="12.00"> &#160;&#160;&#160;&#160;&#160;&#160;&#160;&#160;&#160;&#160;&#160;&#160;&#160;&#160;&#160;&#160;&#160;&#160;&#160;&#160;&#160;&#160;&#160;&#160;&#160;&#160;&#160;&#160;&#160;&#160;&#160;&#160;&#160;&#160;&#160;&#160;&#160;&#160;&#160;</text>
<polygon fill="white" stroke="transparent" points="558.66,-82.78 558.66,-99.78 572.66,-99.78 572.66,-82.78 558.66,-82.78"/>
<text text-anchor="start" x="560.66" y="-88.18" font-family="sans-serif" font-size="12.00">D</text>
<polygon fill="white" stroke="transparent" points="631.2,-141.74 631.2,-158.74 645.2,-158.74 645.2,-141.74 631.2,-141.74"/>
<text text-anchor="start" x="633.2" y="-147.14" font-family="sans-serif" font-size="12.00">U</text>
</g>
<!-- IngenieriafiabilidadContext -->
<g id="node6" class="node">
<title>IngenieriafiabilidadContext</title>
<polygon fill="none" stroke="black" stroke-width="2" points="1039.86,-30.79 1045.04,-33.38 1049.73,-36.01 1053.89,-38.65 1057.51,-41.31 1060.58,-43.98 1063.07,-46.63 1064.97,-49.27 1066.28,-51.88 1066.98,-54.46 1067.07,-56.99 1066.55,-59.47 1065.41,-61.88 1063.65,-64.23 1061.28,-66.5 1058.31,-68.7 1054.74,-70.8 1050.58,-72.81 1045.86,-74.73 1040.58,-76.55 1034.76,-78.26 1028.43,-79.86 1021.61,-81.36 1014.33,-82.75 1006.6,-84.03 998.47,-85.19 989.95,-86.25 981.08,-87.19 971.9,-88.02 962.43,-88.75 952.71,-89.37 942.78,-89.88 932.68,-90.28 922.42,-90.59 912.07,-90.79 901.64,-90.9 891.17,-90.92 880.71,-90.84 870.28,-90.67 859.92,-90.42 849.65,-90.08 839.52,-89.66 829.55,-89.16 819.78,-88.58 810.22,-87.93 800.9,-87.2 791.86,-86.4 783.11,-85.52 774.67,-84.58 766.57,-83.57 758.82,-82.5 751.43,-81.35 744.43,-80.14 737.82,-78.87 731.63,-77.53 725.84,-76.13 720.48,-74.66 715.56,-73.13 711.07,-71.54 707.01,-69.89 703.41,-68.19 700.24,-66.42 697.52,-64.59 695.25,-62.72 693.41,-60.78 692.02,-58.8 691.06,-56.77 690.54,-54.7 690.45,-52.58 690.78,-50.43 691.53,-48.24 692.69,-46.02 694.26,-43.78 696.24,-41.52 698.61,-39.24 701.37,-36.96 704.51,-34.68 708.02,-32.41 711.91,-30.15 716.15,-27.92 720.75,-25.71 725.7,-23.54 730.98,-21.42 736.6,-19.35 742.53,-17.34 748.78,-15.41 755.34,-13.55 762.18,-11.79 769.31,-10.12 776.71,-8.55 784.38,-7.1 792.28,-5.77 800.43,-4.56 808.79,-3.48 817.36,-2.55 826.12,-1.76 835.04,-1.12 844.13,-0.64 853.34,-0.31 862.67,-0.14 872.1,-0.14 881.59,-0.3 891.13,-0.63 900.69,-1.12 910.25,-1.77 919.78,-2.59 929.25,-3.56 938.64,-4.69 947.92,-5.98 957.06,-7.41 966.02,-8.98 974.79,-10.69 983.32,-12.52 991.6,-14.48 999.59,-16.54 1007.26,-18.72 1014.58,-20.98 1021.53,-23.33 1028.08,-25.76 1034.19,-28.25 1039.86,-30.79"/>
<text text-anchor="middle" x="870.09" y="-45.06" font-family="sans-serif" font-size="16.00">IngenieriafiabilidadContext</text>
</g>
<!-- IngenieriaSoftwareContext&#45;&gt;IngenieriafiabilidadContext -->
<g id="edge4" class="edge">
<title>IngenieriaSoftwareContext&#45;&gt;IngenieriafiabilidadContext</title>
<path fill="none" stroke="black" stroke-width="2" d="M742.62,-153.47C767.6,-133.17 797.58,-108.8 822.19,-88.8"/>
<text text-anchor="middle" x="861.59" y="-119.12" font-family="sans-serif" font-size="12.00"> &#160;&#160;&#160;&#160;&#160;&#160;&#160;&#160;&#160;&#160;&#160;&#160;&#160;&#160;&#160;&#160;&#160;&#160;&#160;&#160;&#160;&#160;&#160;&#160;&#160;&#160;&#160;&#160;&#160;&#160;&#160;&#160;&#160;&#160;&#160;&#160;&#160;&#160;&#160;</text>
<polygon fill="white" stroke="transparent" points="815.19,-79.8 815.19,-96.8 829.19,-96.8 829.19,-79.8 815.19,-79.8"/>
<text text-anchor="start" x="817.19" y="-85.2" font-family="sans-serif" font-size="12.00">D</text>
<polygon fill="white" stroke="transparent" points="718.62,-143.47 718.62,-162.47 734.62,-162.47 734.62,-143.47 718.62,-143.47"/>
<polyline fill="none" stroke="black" points="734.62,-143.47 734.62,-162.47 "/>
<text text-anchor="start" x="721.62" y="-149.87" font-family="sans-serif" font-size="12.00">U</text>
<polygon fill="white" stroke="transparent" points="734.62,-143.47 734.62,-162.47 767.62,-162.47 767.62,-143.47 734.62,-143.47"/>
<polygon fill="none" stroke="black" points="734.62,-143.47 734.62,-162.47 767.62,-162.47 767.62,-143.47 734.62,-143.47"/>
<text text-anchor="start" x="737.62" y="-149.87" font-family="sans-serif" font-size="12.00">OHS</text>
</g>
<!-- InvestigacionContext -->
<g id="node7" class="node">
<title>InvestigacionContext</title>
<polygon fill="none" stroke="black" stroke-width="2" points="367.51,-455.78 374.76,-453.82 382.25,-451.96 389.95,-450.21 397.83,-448.58 405.85,-447.07 414,-445.69 422.24,-444.45 430.54,-443.35 438.88,-442.4 447.22,-441.6 455.54,-440.95 463.82,-440.46 472.02,-440.13 480.13,-439.96 488.13,-439.94 495.99,-440.09 503.69,-440.4 511.22,-440.86 518.55,-441.48 525.68,-442.25 532.59,-443.17 539.26,-444.23 545.69,-445.43 551.86,-446.76 557.77,-448.22 563.4,-449.8 568.76,-451.49 573.83,-453.28 578.62,-455.18 583.11,-457.16 587.3,-459.22 591.2,-461.35 594.8,-463.55 598.09,-465.8 601.08,-468.1 603.77,-470.43 606.16,-472.8 608.24,-475.18 610.02,-477.57 611.49,-479.97 612.66,-482.37 613.52,-484.75 614.08,-487.11 614.33,-489.45 614.27,-491.76 613.91,-494.03 613.23,-496.25 612.25,-498.43 610.96,-500.55 609.35,-502.62 607.44,-504.62 605.21,-506.56 602.66,-508.43 599.8,-510.23 596.62,-511.96 593.13,-513.61 589.33,-515.18 585.21,-516.67 580.78,-518.09 576.04,-519.42 571,-520.68 565.66,-521.85 560.03,-522.94 554.1,-523.94 547.9,-524.87 541.43,-525.71 534.71,-526.46 527.73,-527.14 520.53,-527.73 513.11,-528.24 505.48,-528.66 497.68,-529.01 489.71,-529.26 481.59,-529.44 473.36,-529.52 465.03,-529.53 456.63,-529.44 448.19,-529.27 439.72,-529.01 431.27,-528.67 422.85,-528.23 414.5,-527.71 406.24,-527.09 398.11,-526.38 390.14,-525.58 382.36,-524.69 374.79,-523.71 367.47,-522.63 360.43,-521.46 353.69,-520.2 347.29,-518.84 341.24,-517.39 335.58,-515.86 330.33,-514.23 325.51,-512.52 321.14,-510.72 317.25,-508.84 313.84,-506.88 310.93,-504.85 308.54,-502.74 306.67,-500.57 305.34,-498.34 304.55,-496.05 304.3,-493.71 304.59,-491.33 305.42,-488.91 306.8,-486.46 308.7,-483.99 311.12,-481.51 314.05,-479.02 317.48,-476.53 321.39,-474.06 325.76,-471.6 330.58,-469.18 335.82,-466.79 341.46,-464.46 347.47,-462.18 353.84,-459.96 360.53,-457.83 367.51,-455.78"/>
<text text-anchor="middle" x="470.09" y="-484.34" font-family="sans-serif" font-size="16.00">InvestigacionContext</text>
</g>
<!-- InvestigacionContext&#45;&gt;FinancialContext -->
<g id="edge7" class="edge">
<title>InvestigacionContext&#45;&gt;FinancialContext</title>
<path fill="none" stroke="black" stroke-width="2" d="M384.29,-451.28C361.75,-441.77 337.47,-431.46 315.09,-421.79 283.91,-408.33 249.78,-393.3 219.82,-380.02"/>
<text text-anchor="middle" x="390.59" y="-412.19" font-family="sans-serif" font-size="12.00"> &#160;&#160;&#160;&#160;&#160;&#160;&#160;&#160;&#160;&#160;&#160;&#160;&#160;&#160;&#160;&#160;&#160;&#160;&#160;&#160;&#160;&#160;&#160;&#160;&#160;&#160;&#160;&#160;&#160;&#160;&#160;&#160;&#160;&#160;&#160;&#160;&#160;&#160;&#160;</text>
<polygon fill="white" stroke="transparent" points="212.82,-371.02 212.82,-388.02 226.82,-388.02 226.82,-371.02 212.82,-371.02"/>
<text text-anchor="start" x="214.82" y="-376.42" font-family="sans-serif" font-size="12.00">D</text>
<polygon fill="white" stroke="transparent" points="360.29,-441.28 360.29,-460.28 376.29,-460.28 376.29,-441.28 360.29,-441.28"/>
<polyline fill="none" stroke="black" points="376.29,-441.28 376.29,-460.28 "/>
<text text-anchor="start" x="363.29" y="-447.68" font-family="sans-serif" font-size="12.00">U</text>
<polygon fill="white" stroke="transparent" points="376.29,-441.28 376.29,-460.28 409.29,-460.28 409.29,-441.28 376.29,-441.28"/>
<polygon fill="none" stroke="black" points="376.29,-441.28 376.29,-460.28 409.29,-460.28 409.29,-441.28 376.29,-441.28"/>
<text text-anchor="start" x="379.29" y="-447.68" font-family="sans-serif" font-size="12.00">OHS</text>
</g>
<!-- InvestigacionContext&#45;&gt;IngenieriaDatosContext -->
<g id="edge5" class="edge">
<title>InvestigacionContext&#45;&gt;IngenieriaDatosContext</title>
<path fill="none" stroke="black" stroke-width="2" d="M470.09,-439.97C470.09,-421.91 470.09,-401.49 470.09,-384.06"/>
<text text-anchor="middle" x="545.59" y="-412.19" font-family="sans-serif" font-size="12.00"> &#160;&#160;&#160;&#160;&#160;&#160;&#160;&#160;&#160;&#160;&#160;&#160;&#160;&#160;&#160;&#160;&#160;&#160;&#160;&#160;&#160;&#160;&#160;&#160;&#160;&#160;&#160;&#160;&#160;&#160;&#160;&#160;&#160;&#160;&#160;&#160;&#160;&#160;&#160;</text>
<polygon fill="white" stroke="transparent" points="463.09,-375.06 463.09,-392.06 477.09,-392.06 477.09,-375.06 463.09,-375.06"/>
<text text-anchor="start" x="465.09" y="-380.46" font-family="sans-serif" font-size="12.00">D</text>
<polygon fill="white" stroke="transparent" points="463.09,-430.97 463.09,-447.97 477.09,-447.97 477.09,-430.97 463.09,-430.97"/>
<text text-anchor="start" x="465.09" y="-436.37" font-family="sans-serif" font-size="12.00">U</text>
</g>
<!-- LegalContext -->
<g id="node8" class="node">
<title>LegalContext</title>
<polygon fill="none" stroke="black" stroke-width="2" points="844.4,-305.35 850.28,-306.91 855.96,-308.56 861.42,-310.3 866.63,-312.12 871.57,-314.01 876.22,-315.96 880.57,-317.98 884.58,-320.04 888.26,-322.15 891.58,-324.3 894.54,-326.48 897.11,-328.69 899.29,-330.92 901.08,-333.16 902.47,-335.4 903.46,-337.65 904.04,-339.89 904.22,-342.12 904,-344.33 903.39,-346.52 902.38,-348.69 901,-350.82 899.25,-352.92 897.14,-354.98 894.68,-357 891.9,-358.97 888.8,-360.89 885.41,-362.75 881.73,-364.56 877.8,-366.3 873.62,-367.98 869.22,-369.6 864.62,-371.15 859.84,-372.62 854.9,-374.02 849.82,-375.35 844.63,-376.59 839.33,-377.76 833.95,-378.84 828.51,-379.84 823.03,-380.75 817.53,-381.58 812.01,-382.31 806.51,-382.95 801.03,-383.5 795.59,-383.95 790.19,-384.3 784.86,-384.55 779.61,-384.71 774.43,-384.76 769.36,-384.71 764.38,-384.55 759.51,-384.3 754.75,-383.93 750.12,-383.46 745.61,-382.88 741.23,-382.19 736.99,-381.4 732.88,-380.5 728.91,-379.49 725.08,-378.38 721.39,-377.16 717.85,-375.84 714.46,-374.42 711.21,-372.9 708.11,-371.29 705.17,-369.58 702.39,-367.79 699.76,-365.91 697.29,-363.94 694.98,-361.9 692.85,-359.79 690.88,-357.61 689.09,-355.37 687.48,-353.08 686.06,-350.74 684.83,-348.36 683.8,-345.94 682.97,-343.5 682.35,-341.04 681.95,-338.56 681.78,-336.09 681.83,-333.62 682.13,-331.16 682.67,-328.72 683.46,-326.32 684.51,-323.95 685.82,-321.63 687.4,-319.36 689.25,-317.16 691.37,-315.03 693.78,-312.98 696.46,-311.01 699.43,-309.14 702.67,-307.37 706.19,-305.7 709.99,-304.15 714.05,-302.71 718.38,-301.4 722.97,-300.21 727.8,-299.16 732.87,-298.24 738.17,-297.46 743.67,-296.82 749.37,-296.32 755.25,-295.97 761.29,-295.75 767.47,-295.69 773.78,-295.76 780.18,-295.98 786.66,-296.34 793.2,-296.83 799.76,-297.47 806.33,-298.23 812.88,-299.12 819.38,-300.14 825.81,-301.27 832.14,-302.52 838.35,-303.88 844.4,-305.35"/>
<text text-anchor="middle" x="785.09" y="-338.27" font-family="sans-serif" font-size="16.00">LegalContext</text>
</g>
<!-- InvestigacionContext&#45;&gt;LegalContext -->
<g id="edge6" class="edge">
<title>InvestigacionContext&#45;&gt;LegalContext</title>
<path fill="none" stroke="black" stroke-width="2" d="M562.27,-449.32C583.03,-440.51 604.9,-431 625.09,-421.79 656.35,-407.53 690.58,-390.83 719.33,-376.5"/>
<text text-anchor="middle" x="727.59" y="-412.19" font-family="sans-serif" font-size="12.00"> &#160;&#160;&#160;&#160;&#160;&#160;&#160;&#160;&#160;&#160;&#160;&#160;&#160;&#160;&#160;&#160;&#160;&#160;&#160;&#160;&#160;&#160;&#160;&#160;&#160;&#160;&#160;&#160;&#160;&#160;&#160;&#160;&#160;&#160;&#160;&#160;&#160;&#160;&#160;</text>
<polygon fill="white" stroke="transparent" points="712.33,-367.5 712.33,-384.5 726.33,-384.5 726.33,-367.5 712.33,-367.5"/>
<text text-anchor="start" x="714.33" y="-372.9" font-family="sans-serif" font-size="12.00">D</text>
<polygon fill="white" stroke="transparent" points="538.27,-439.32 538.27,-458.32 554.27,-458.32 554.27,-439.32 538.27,-439.32"/>
<polyline fill="none" stroke="black" points="554.27,-439.32 554.27,-458.32 "/>
<text text-anchor="start" x="541.27" y="-445.72" font-family="sans-serif" font-size="12.00">U</text>
<polygon fill="white" stroke="transparent" points="554.27,-439.32 554.27,-458.32 587.27,-458.32 587.27,-439.32 554.27,-439.32"/>
<polygon fill="none" stroke="black" points="554.27,-439.32 554.27,-458.32 587.27,-458.32 587.27,-439.32 554.27,-439.32"/>
<text text-anchor="start" x="557.27" y="-445.72" font-family="sans-serif" font-size="12.00">OHS</text>
</g>
</g>
</svg>
