<svg width="2000px" height="797px"
 viewBox="0.00 0.00 2056.45 819.11" xmlns="http://www.w3.org/2000/svg" xmlns:xlink="http://www.w3.org/1999/xlink">
<g id="graph0" class="graph" transform="scale(1.0 1.0) rotate(0) translate(4 815.11)">
<title>ContextMapGraph</title>
<polygon fill="white" stroke="transparent" points="-4,4 -4,-815.11 2052.45,-815.11 2052.45,4 -4,4"/>
<!-- AnaliticaContext -->
<g id="node1" class="node">
<title>AnaliticaContext</title>
<polygon fill="none" stroke="black" stroke-width="2" points="1235.37,-203.88 1233.69,-206.7 1231.69,-209.47 1229.36,-212.19 1226.72,-214.84 1223.78,-217.41 1220.53,-219.9 1217.01,-222.29 1213.2,-224.57 1209.14,-226.73 1204.82,-228.78 1200.26,-230.69 1195.48,-232.47 1190.48,-234.11 1185.28,-235.59 1179.89,-236.93 1174.34,-238.11 1168.63,-239.14 1162.78,-240 1156.8,-240.71 1150.72,-241.26 1144.54,-241.65 1138.28,-241.88 1131.96,-241.96 1125.6,-241.89 1119.21,-241.66 1112.8,-241.3 1106.4,-240.8 1100.02,-240.16 1093.67,-239.39 1087.37,-238.51 1081.15,-237.51 1075,-236.39 1068.96,-235.18 1063.03,-233.87 1057.22,-232.48 1051.57,-231 1046.07,-229.45 1040.74,-227.83 1035.6,-226.16 1030.66,-224.43 1025.93,-222.65 1021.43,-220.83 1017.16,-218.97 1013.14,-217.09 1009.39,-215.18 1005.9,-213.25 1002.69,-211.31 999.77,-209.35 997.15,-207.39 994.84,-205.42 992.84,-203.45 991.16,-201.49 989.8,-199.52 988.78,-197.57 988.08,-195.62 987.73,-193.68 987.71,-191.75 988.03,-189.84 988.7,-187.94 989.71,-186.05 991.05,-184.19 992.74,-182.34 994.75,-180.5 997.1,-178.69 999.77,-176.9 1002.76,-175.14 1006.06,-173.4 1009.66,-171.69 1013.56,-170 1017.74,-168.35 1022.19,-166.74 1026.91,-165.16 1031.87,-163.63 1037.07,-162.14 1042.49,-160.7 1048.11,-159.32 1053.93,-157.99 1059.92,-156.73 1066.06,-155.54 1072.35,-154.42 1078.76,-153.39 1085.26,-152.43 1091.86,-151.57 1098.52,-150.81 1105.22,-150.14 1111.95,-149.58 1118.68,-149.14 1125.4,-148.81 1132.09,-148.61 1138.72,-148.53 1145.28,-148.59 1151.75,-148.78 1158.1,-149.1 1164.33,-149.57 1170.4,-150.18 1176.31,-150.94 1182.04,-151.84 1187.57,-152.89 1192.88,-154.08 1197.96,-155.42 1202.79,-156.9 1207.36,-158.52 1211.66,-160.27 1215.68,-162.15 1219.4,-164.16 1222.82,-166.3 1225.92,-168.54 1228.7,-170.89 1231.15,-173.34 1233.27,-175.87 1235.04,-178.49 1236.47,-181.18 1237.55,-183.92 1238.28,-186.72 1238.67,-189.55 1238.7,-192.41 1238.38,-195.29 1237.72,-198.16 1236.72,-201.03 1235.37,-203.88"/>
<text text-anchor="middle" x="1112.79" y="-190.44" font-family="sans-serif" font-size="16.00">AnaliticaContext</text>
</g>
<!-- TransaccionesArrendamientoContext -->
<g id="node2" class="node">
<title>TransaccionesArrendamientoContext</title>
<polygon fill="none" stroke="black" stroke-width="2" points="327.66,-91.56 312.44,-92.32 297.14,-92.95 281.84,-93.46 266.59,-93.84 251.44,-94.09 236.47,-94.2 221.72,-94.19 207.26,-94.03 193.12,-93.75 179.36,-93.33 166.03,-92.77 153.17,-92.08 140.82,-91.26 129.02,-90.31 117.79,-89.23 107.17,-88.03 97.18,-86.71 87.84,-85.28 79.17,-83.73 71.18,-82.07 63.89,-80.32 57.29,-78.46 51.4,-76.52 46.2,-74.5 41.71,-72.4 37.9,-70.23 34.77,-67.99 32.32,-65.71 30.52,-63.37 29.36,-61 28.82,-58.6 28.89,-56.17 29.54,-53.72 30.75,-51.27 32.51,-48.82 34.78,-46.38 37.56,-43.95 40.81,-41.55 44.52,-39.18 48.67,-36.85 53.23,-34.56 58.19,-32.32 63.53,-30.14 69.23,-28.03 75.28,-25.98 81.66,-24.01 88.36,-22.13 95.37,-20.32 102.68,-18.61 110.27,-16.99 118.14,-15.47 126.28,-14.05 134.68,-12.73 143.35,-11.52 152.26,-10.42 161.42,-9.43 170.82,-8.54 180.46,-7.77 190.32,-7.12 200.41,-6.58 210.71,-6.15 221.22,-5.83 231.93,-5.63 242.82,-5.54 253.9,-5.56 265.13,-5.69 276.51,-5.94 288.02,-6.28 299.64,-6.74 311.35,-7.3 323.13,-7.95 334.94,-8.71 346.77,-9.57 358.57,-10.52 370.33,-11.56 381.99,-12.69 393.54,-13.91 404.92,-15.21 416.11,-16.59 427.05,-18.05 437.71,-19.58 448.05,-21.18 458.01,-22.86 467.56,-24.59 476.66,-26.39 485.25,-28.24 493.29,-30.14 500.75,-32.1 507.58,-34.1 513.75,-36.14 519.21,-38.21 523.92,-40.32 527.87,-42.46 531.01,-44.62 533.33,-46.8 534.79,-49 535.38,-51.2 535.08,-53.41 533.89,-55.61 531.79,-57.81 528.78,-59.99 524.87,-62.16 520.05,-64.3 514.35,-66.42 507.78,-68.5 500.35,-70.54 492.09,-72.53 483.04,-74.47 473.22,-76.35 462.67,-78.16 451.43,-79.91 439.55,-81.58 427.08,-83.16 414.06,-84.66 400.55,-86.07 386.6,-87.38 372.28,-88.59 357.65,-89.7 342.75,-90.69 327.66,-91.56"/>
<text text-anchor="middle" x="267.79" y="-45.02" font-family="sans-serif" font-size="16.00">TransaccionesArrendamientoContext</text>
</g>
<!-- AnaliticaContext&#45;&gt;TransaccionesArrendamientoContext -->
<g id="edge1" class="edge">
<title>AnaliticaContext&#45;&gt;TransaccionesArrendamientoContext</title>
<path fill="none" stroke="black" stroke-width="2" d="M1002.89,-174.95C888.26,-155.83 703.39,-124.87 543.79,-97.64 512.03,-92.22 478.23,-86.4 445.56,-80.76"/>
<text text-anchor="middle" x="792.29" y="-119.04" font-family="sans-serif" font-size="12.00"> &#160;&#160;&#160;&#160;&#160;&#160;&#160;&#160;&#160;&#160;&#160;&#160;&#160;&#160;&#160;&#160;&#160;&#160;&#160;&#160;&#160;&#160;&#160;&#160;&#160;&#160;&#160;&#160;&#160;&#160;&#160;&#160;&#160;&#160;&#160;&#160;&#160;&#160;&#160;</text>
<polygon fill="white" stroke="transparent" points="438.56,-71.76 438.56,-88.76 452.56,-88.76 452.56,-71.76 438.56,-71.76"/>
<text text-anchor="start" x="440.56" y="-77.16" font-family="sans-serif" font-size="12.00">D</text>
<polygon fill="white" stroke="transparent" points="995.89,-165.95 995.89,-182.95 1009.89,-182.95 1009.89,-165.95 995.89,-165.95"/>
<text text-anchor="start" x="997.89" y="-171.35" font-family="sans-serif" font-size="12.00">U</text>
</g>
<!-- PropiedadesContext -->
<g id="node3" class="node">
<title>PropiedadesContext</title>
<polygon fill="none" stroke="black" stroke-width="2" points="579.12,-68.93 574.62,-66.41 570.49,-63.85 566.78,-61.26 563.48,-58.65 560.62,-56.03 558.2,-53.41 556.25,-50.81 554.77,-48.22 553.78,-45.66 553.26,-43.13 553.24,-40.65 553.71,-38.23 554.68,-35.86 556.14,-33.57 558.08,-31.34 560.51,-29.2 563.41,-27.14 566.77,-25.17 570.58,-23.29 574.83,-21.51 579.5,-19.83 584.58,-18.25 590.04,-16.78 595.86,-15.41 602.02,-14.14 608.5,-12.99 615.27,-11.94 622.31,-10.99 629.59,-10.15 637.09,-9.42 644.77,-8.79 652.6,-8.26 660.57,-7.83 668.64,-7.5 676.78,-7.26 684.96,-7.12 693.16,-7.06 701.35,-7.1 709.5,-7.23 717.59,-7.44 725.59,-7.74 733.48,-8.11 741.23,-8.57 748.82,-9.1 756.23,-9.72 763.45,-10.4 770.45,-11.17 777.21,-12 783.73,-12.91 789.98,-13.89 795.96,-14.94 801.65,-16.06 807.04,-17.25 812.12,-18.51 816.89,-19.84 821.34,-21.24 825.46,-22.7 829.25,-24.23 832.71,-25.83 835.83,-27.49 838.61,-29.21 841.06,-31 843.16,-32.84 844.94,-34.75 846.37,-36.71 847.47,-38.72 848.24,-40.79 848.69,-42.9 848.8,-45.05 848.6,-47.25 848.07,-49.47 847.24,-51.73 846.09,-54.01 844.63,-56.31 842.87,-58.61 840.81,-60.93 838.46,-63.24 835.81,-65.54 832.88,-67.82 829.66,-70.08 826.17,-72.31 822.41,-74.49 818.38,-76.62 814.08,-78.7 809.53,-80.71 804.73,-82.64 799.68,-84.48 794.39,-86.24 788.88,-87.89 783.13,-89.43 777.18,-90.86 771.02,-92.17 764.66,-93.34 758.12,-94.38 751.41,-95.27 744.54,-96.02 737.52,-96.62 730.36,-97.06 723.09,-97.34 715.72,-97.46 708.27,-97.41 700.75,-97.21 693.18,-96.83 685.59,-96.3 677.99,-95.6 670.41,-94.74 662.86,-93.73 655.38,-92.56 647.98,-91.25 640.69,-89.79 633.54,-88.19 626.54,-86.47 619.72,-84.62 613.11,-82.65 606.73,-80.58 600.61,-78.41 594.76,-76.15 589.22,-73.81 584,-71.4 579.12,-68.93"/>
<text text-anchor="middle" x="708.79" y="-45.02" font-family="sans-serif" font-size="16.00">PropiedadesContext</text>
</g>
<!-- AnaliticaContext&#45;&gt;PropiedadesContext -->
<g id="edge2" class="edge">
<title>AnaliticaContext&#45;&gt;PropiedadesContext</title>
<path fill="none" stroke="black" stroke-width="2" d="M1030.06,-163.87C964.15,-140.48 871.86,-107.71 803.09,-83.3"/>
<text text-anchor="middle" x="999.29" y="-119.04" font-family="sans-serif" font-size="12.00"> &#160;&#160;&#160;&#160;&#160;&#160;&#160;&#160;&#160;&#160;&#160;&#160;&#160;&#160;&#160;&#160;&#160;&#160;&#160;&#160;&#160;&#160;&#160;&#160;&#160;&#160;&#160;&#160;&#160;&#160;&#160;&#160;&#160;&#160;&#160;&#160;&#160;&#160;&#160;</text>
<polygon fill="white" stroke="transparent" points="796.09,-74.3 796.09,-91.3 810.09,-91.3 810.09,-74.3 796.09,-74.3"/>
<text text-anchor="start" x="798.09" y="-79.7" font-family="sans-serif" font-size="12.00">D</text>
<polygon fill="white" stroke="transparent" points="1023.06,-154.87 1023.06,-171.87 1037.06,-171.87 1037.06,-154.87 1023.06,-154.87"/>
<text text-anchor="start" x="1025.06" y="-160.27" font-family="sans-serif" font-size="12.00">U</text>
</g>
<!-- InformeEstadoMercadoContext -->
<g id="node4" class="node">
<title>InformeEstadoMercadoContext</title>
<polygon fill="none" stroke="black" stroke-width="2" points="1218.28,-11.17 1230.02,-12.59 1241.39,-14.11 1252.35,-15.72 1262.85,-17.4 1272.86,-19.17 1282.32,-21.01 1291.2,-22.91 1299.47,-24.87 1307.08,-26.88 1314.02,-28.94 1320.26,-31.04 1325.77,-33.17 1330.53,-35.33 1334.54,-37.51 1337.77,-39.7 1340.23,-41.9 1341.9,-44.11 1342.8,-46.31 1342.92,-48.51 1342.27,-50.69 1340.86,-52.86 1338.72,-55 1335.85,-57.12 1332.28,-59.21 1328.04,-61.26 1323.15,-63.27 1317.64,-65.23 1311.54,-67.15 1304.89,-69.02 1297.72,-70.83 1290.07,-72.59 1281.98,-74.28 1273.48,-75.91 1264.61,-77.47 1255.42,-78.97 1245.94,-80.39 1236.21,-81.73 1226.27,-83 1216.15,-84.19 1205.9,-85.29 1195.54,-86.31 1185.12,-87.25 1174.65,-88.09 1164.18,-88.84 1153.74,-89.5 1143.34,-90.06 1133.01,-90.53 1122.79,-90.89 1112.68,-91.16 1102.71,-91.32 1092.89,-91.38 1083.24,-91.33 1073.78,-91.18 1064.51,-90.92 1055.45,-90.55 1046.6,-90.07 1037.98,-89.49 1029.59,-88.79 1021.43,-87.99 1013.52,-87.08 1005.85,-86.06 998.44,-84.93 991.28,-83.7 984.37,-82.37 977.73,-80.93 971.36,-79.4 965.26,-77.77 959.44,-76.05 953.91,-74.25 948.66,-72.35 943.71,-70.38 939.06,-68.34 934.73,-66.22 930.73,-64.04 927.06,-61.81 923.74,-59.52 920.78,-57.19 918.19,-54.81 915.99,-52.41 914.2,-49.99 912.82,-47.55 911.87,-45.1 911.38,-42.65 911.34,-40.21 911.79,-37.79 912.72,-35.39 914.16,-33.02 916.13,-30.69 918.62,-28.42 921.65,-26.19 925.23,-24.04 929.37,-21.95 934.07,-19.95 939.33,-18.03 945.16,-16.21 951.55,-14.48 958.5,-12.86 965.99,-11.35 974.03,-9.96 982.59,-8.69 991.66,-7.54 1001.23,-6.52 1011.25,-5.64 1021.72,-4.88 1032.6,-4.27 1043.87,-3.79 1055.48,-3.45 1067.4,-3.25 1079.58,-3.19 1092,-3.27 1104.6,-3.49 1117.34,-3.84 1130.17,-4.32 1143.04,-4.94 1155.9,-5.68 1168.7,-6.55 1181.39,-7.54 1193.92,-8.64 1206.23,-9.85 1218.28,-11.17"/>
<text text-anchor="middle" x="1112.79" y="-45.02" font-family="sans-serif" font-size="16.00">InformeEstadoMercadoContext</text>
</g>
<!-- AnaliticaContext&#45;&gt;InformeEstadoMercadoContext -->
<g id="edge3" class="edge">
<title>AnaliticaContext&#45;&gt;InformeEstadoMercadoContext</title>
<path fill="none" stroke="black" stroke-width="2" d="M1112.79,-149.43C1112.79,-130.98 1112.79,-109.61 1112.79,-91.4"/>
<text text-anchor="middle" x="1188.29" y="-119.04" font-family="sans-serif" font-size="12.00"> &#160;&#160;&#160;&#160;&#160;&#160;&#160;&#160;&#160;&#160;&#160;&#160;&#160;&#160;&#160;&#160;&#160;&#160;&#160;&#160;&#160;&#160;&#160;&#160;&#160;&#160;&#160;&#160;&#160;&#160;&#160;&#160;&#160;&#160;&#160;&#160;&#160;&#160;&#160;</text>
<polygon fill="white" stroke="transparent" points="1105.79,-82.4 1105.79,-99.4 1119.79,-99.4 1119.79,-82.4 1105.79,-82.4"/>
<text text-anchor="start" x="1107.79" y="-87.8" font-family="sans-serif" font-size="12.00">D</text>
<polygon fill="white" stroke="transparent" points="1105.79,-140.43 1105.79,-157.43 1119.79,-157.43 1119.79,-140.43 1105.79,-140.43"/>
<text text-anchor="start" x="1107.79" y="-145.83" font-family="sans-serif" font-size="12.00">U</text>
</g>
<!-- TransaccionesVentaContext -->
<g id="node5" class="node">
<title>TransaccionesVentaContext</title>
<polygon fill="none" stroke="black" stroke-width="2" points="1416.99,-20.92 1424.74,-18.69 1432.84,-16.55 1441.27,-14.52 1449.99,-12.59 1458.97,-10.78 1468.18,-9.09 1477.58,-7.53 1487.14,-6.12 1496.83,-4.84 1506.62,-3.71 1516.48,-2.74 1526.38,-1.92 1536.29,-1.27 1546.17,-0.77 1556.01,-0.44 1565.78,-0.27 1575.45,-0.27 1585,-0.43 1594.4,-0.74 1603.65,-1.22 1612.71,-1.85 1621.56,-2.64 1630.2,-3.57 1638.6,-4.64 1646.76,-5.84 1654.65,-7.18 1662.26,-8.63 1669.59,-10.21 1676.62,-11.89 1683.34,-13.67 1689.75,-15.54 1695.83,-17.49 1701.58,-19.52 1707,-21.61 1712.06,-23.77 1716.78,-25.97 1721.14,-28.21 1725.14,-30.48 1728.77,-32.78 1732.02,-35.09 1734.9,-37.41 1737.4,-39.73 1739.51,-42.05 1741.22,-44.35 1742.54,-46.63 1743.46,-48.89 1743.97,-51.12 1744.07,-53.31 1743.75,-55.46 1743.02,-57.57 1741.87,-59.63 1740.28,-61.63 1738.27,-63.58 1735.83,-65.48 1732.96,-67.31 1729.65,-69.08 1725.91,-70.79 1721.74,-72.43 1717.14,-74.01 1712.11,-75.52 1706.65,-76.96 1700.78,-78.33 1694.5,-79.63 1687.81,-80.86 1680.73,-82.03 1673.27,-83.12 1665.44,-84.13 1657.26,-85.08 1648.74,-85.95 1639.9,-86.75 1630.77,-87.48 1621.36,-88.13 1611.7,-88.7 1601.81,-89.2 1591.73,-89.61 1581.47,-89.95 1571.08,-90.2 1560.57,-90.37 1549.99,-90.45 1539.37,-90.45 1528.74,-90.35 1518.14,-90.17 1507.6,-89.89 1497.16,-89.51 1486.87,-89.04 1476.74,-88.47 1466.83,-87.8 1457.17,-87.03 1447.79,-86.15 1438.73,-85.17 1430.03,-84.09 1421.72,-82.9 1413.82,-81.6 1406.37,-80.21 1399.41,-78.7 1392.95,-77.1 1387.02,-75.4 1381.64,-73.6 1376.84,-71.7 1372.62,-69.72 1369.02,-67.64 1366.04,-65.49 1363.68,-63.26 1361.97,-60.96 1360.89,-58.59 1360.46,-56.16 1360.68,-53.69 1361.53,-51.17 1363.02,-48.62 1365.13,-46.04 1367.86,-43.44 1371.19,-40.84 1375.1,-38.24 1379.57,-35.65 1384.59,-33.08 1390.13,-30.54 1396.16,-28.05 1402.67,-25.61 1409.62,-23.23 1416.99,-20.92"/>
<text text-anchor="middle" x="1562.79" y="-45.02" font-family="sans-serif" font-size="16.00">TransaccionesVentaContext</text>
</g>
<!-- AnaliticaContext&#45;&gt;TransaccionesVentaContext -->
<g id="edge4" class="edge">
<title>AnaliticaContext&#45;&gt;TransaccionesVentaContext</title>
<path fill="none" stroke="black" stroke-width="2" d="M1213.78,-161.06C1283.36,-138.88 1375.94,-109.37 1448.27,-86.32"/>
<text text-anchor="middle" x="1426.29" y="-119.04" font-family="sans-serif" font-size="12.00"> &#160;&#160;&#160;&#160;&#160;&#160;&#160;&#160;&#160;&#160;&#160;&#160;&#160;&#160;&#160;&#160;&#160;&#160;&#160;&#160;&#160;&#160;&#160;&#160;&#160;&#160;&#160;&#160;&#160;&#160;&#160;&#160;&#160;&#160;&#160;&#160;&#160;&#160;&#160;</text>
<polygon fill="white" stroke="transparent" points="1441.27,-77.32 1441.27,-94.32 1455.27,-94.32 1455.27,-77.32 1441.27,-77.32"/>
<text text-anchor="start" x="1443.27" y="-82.72" font-family="sans-serif" font-size="12.00">D</text>
<polygon fill="white" stroke="transparent" points="1206.78,-152.06 1206.78,-169.06 1220.78,-169.06 1220.78,-152.06 1206.78,-152.06"/>
<text text-anchor="start" x="1208.78" y="-157.46" font-family="sans-serif" font-size="12.00">U</text>
</g>
<!-- InquilinosContext -->
<g id="node6" class="node">
<title>InquilinosContext</title>
<polygon fill="none" stroke="black" stroke-width="2" points="1784.22,-52.15 1783.44,-49.3 1783.02,-46.45 1782.98,-43.62 1783.31,-40.83 1784.01,-38.08 1785.09,-35.38 1786.54,-32.74 1788.36,-30.18 1790.55,-27.7 1793.09,-25.31 1796,-23.02 1799.25,-20.84 1802.83,-18.77 1806.75,-16.82 1810.99,-15 1815.53,-13.31 1820.37,-11.75 1825.49,-10.32 1830.87,-9.04 1836.51,-7.9 1842.37,-6.89 1848.45,-6.03 1854.73,-5.31 1861.19,-4.73 1867.8,-4.29 1874.56,-3.99 1881.43,-3.81 1888.4,-3.77 1895.44,-3.85 1902.54,-4.05 1909.68,-4.37 1916.82,-4.8 1923.96,-5.34 1931.06,-5.98 1938.11,-6.72 1945.09,-7.55 1951.97,-8.46 1958.74,-9.46 1965.37,-10.53 1971.85,-11.68 1978.16,-12.89 1984.28,-14.16 1990.19,-15.49 1995.88,-16.88 2001.32,-18.31 2006.51,-19.8 2011.44,-21.32 2016.08,-22.89 2020.44,-24.49 2024.48,-26.13 2028.22,-27.8 2031.63,-29.5 2034.71,-31.23 2037.46,-32.99 2039.86,-34.78 2041.92,-36.59 2043.62,-38.42 2044.97,-40.28 2045.97,-42.16 2046.61,-44.05 2046.89,-45.97 2046.82,-47.91 2046.4,-49.86 2045.63,-51.82 2044.52,-53.8 2043.06,-55.79 2041.27,-57.78 2039.15,-59.78 2036.71,-61.78 2033.96,-63.78 2030.9,-65.78 2027.55,-67.76 2023.9,-69.73 2019.99,-71.68 2015.8,-73.6 2011.36,-75.49 2006.68,-77.35 2001.77,-79.16 1996.64,-80.92 1991.31,-82.63 1985.78,-84.27 1980.08,-85.84 1974.21,-87.34 1968.19,-88.75 1962.04,-90.06 1955.77,-91.28 1949.4,-92.39 1942.93,-93.39 1936.4,-94.27 1929.8,-95.02 1923.17,-95.64 1916.5,-96.12 1909.83,-96.45 1903.17,-96.64 1896.53,-96.68 1889.93,-96.56 1883.39,-96.29 1876.92,-95.85 1870.54,-95.26 1864.26,-94.5 1858.11,-93.59 1852.1,-92.51 1846.24,-91.28 1840.56,-89.9 1835.06,-88.36 1829.76,-86.68 1824.68,-84.86 1819.83,-82.91 1815.22,-80.82 1810.88,-78.62 1806.8,-76.31 1803.01,-73.9 1799.52,-71.39 1796.33,-68.8 1793.47,-66.14 1790.93,-63.42 1788.72,-60.65 1786.87,-57.84 1785.36,-55 1784.22,-52.15"/>
<text text-anchor="middle" x="1915.79" y="-45.02" font-family="sans-serif" font-size="16.00">InquilinosContext</text>
</g>
<!-- AnaliticaContext&#45;&gt;InquilinosContext -->
<g id="edge5" class="edge">
<title>AnaliticaContext&#45;&gt;InquilinosContext</title>
<path fill="none" stroke="black" stroke-width="2" d="M1237.1,-182.05C1370.91,-168.43 1589.39,-141.64 1773.79,-97.64 1789.61,-93.86 1806.16,-89.08 1822.16,-84.01"/>
<text text-anchor="middle" x="1760.29" y="-119.04" font-family="sans-serif" font-size="12.00"> &#160;&#160;&#160;&#160;&#160;&#160;&#160;&#160;&#160;&#160;&#160;&#160;&#160;&#160;&#160;&#160;&#160;&#160;&#160;&#160;&#160;&#160;&#160;&#160;&#160;&#160;&#160;&#160;&#160;&#160;&#160;&#160;&#160;&#160;&#160;&#160;&#160;&#160;&#160;</text>
<polygon fill="white" stroke="transparent" points="1815.16,-75.01 1815.16,-92.01 1829.16,-92.01 1829.16,-75.01 1815.16,-75.01"/>
<text text-anchor="start" x="1817.16" y="-80.41" font-family="sans-serif" font-size="12.00">D</text>
<polygon fill="white" stroke="transparent" points="1230.1,-173.05 1230.1,-190.05 1244.1,-190.05 1244.1,-173.05 1230.1,-173.05"/>
<text text-anchor="start" x="1232.1" y="-178.45" font-family="sans-serif" font-size="12.00">U</text>
</g>
<!-- CapturaDatosManualContext -->
<g id="node7" class="node">
<title>CapturaDatosManualContext</title>
<polygon fill="none" stroke="black" stroke-width="2" points="1019.64,-730.37 1029.61,-732.17 1039.17,-734.05 1048.28,-736 1056.91,-738.02 1065.01,-740.1 1072.56,-742.24 1079.53,-744.41 1085.88,-746.63 1091.58,-748.88 1096.62,-751.15 1100.98,-753.43 1104.63,-755.72 1107.57,-758.02 1109.79,-760.31 1111.27,-762.59 1112.03,-764.85 1112.05,-767.09 1111.34,-769.31 1109.91,-771.49 1107.78,-773.63 1104.95,-775.73 1101.45,-777.78 1097.29,-779.78 1092.5,-781.73 1087.1,-783.62 1081.13,-785.45 1074.61,-787.21 1067.57,-788.91 1060.05,-790.54 1052.09,-792.1 1043.72,-793.58 1034.97,-794.99 1025.9,-796.33 1016.52,-797.58 1006.89,-798.76 997.05,-799.85 987.02,-800.86 976.85,-801.78 966.57,-802.63 956.22,-803.38 945.84,-804.05 935.45,-804.63 925.09,-805.11 914.78,-805.51 904.57,-805.82 894.46,-806.03 884.49,-806.15 874.69,-806.17 865.06,-806.1 855.64,-805.93 846.43,-805.66 837.45,-805.3 828.72,-804.83 820.25,-804.26 812.04,-803.6 804.12,-802.83 796.47,-801.97 789.12,-801 782.07,-799.93 775.32,-798.77 768.87,-797.5 762.73,-796.14 756.91,-794.68 751.4,-793.13 746.2,-791.49 741.32,-789.76 736.76,-787.95 732.53,-786.05 728.62,-784.08 725.05,-782.03 721.8,-779.92 718.9,-777.73 716.33,-775.5 714.12,-773.2 712.26,-770.87 710.76,-768.49 709.62,-766.08 708.87,-763.65 708.49,-761.2 708.51,-758.73 708.93,-756.27 709.77,-753.81 711.01,-751.37 712.69,-748.95 714.8,-746.57 717.35,-744.22 720.36,-741.92 723.81,-739.68 727.73,-737.51 732.12,-735.41 736.97,-733.39 742.3,-731.47 748.09,-729.64 754.34,-727.91 761.06,-726.3 768.24,-724.8 775.86,-723.43 783.92,-722.18 792.4,-721.07 801.28,-720.09 810.56,-719.26 820.2,-718.56 830.18,-718.02 840.48,-717.62 851.08,-717.37 861.93,-717.27 873.01,-717.32 884.28,-717.52 895.7,-717.87 907.24,-718.36 918.86,-718.99 930.51,-719.76 942.15,-720.66 953.74,-721.7 965.23,-722.86 976.58,-724.15 987.74,-725.55 998.66,-727.05 1009.31,-728.66 1019.64,-730.37"/>
<text text-anchor="middle" x="894.79" y="-760.36" font-family="sans-serif" font-size="16.00">CapturaDatosManualContext</text>
</g>
<!-- ProcesamientoLimpiezaDatosContext -->
<g id="node8" class="node">
<title>ProcesamientoLimpiezaDatosContext</title>
<polygon fill="none" stroke="black" stroke-width="2" points="1277.59,-588.75 1289.44,-590.65 1300.76,-592.63 1311.51,-594.68 1321.63,-596.8 1331.09,-598.96 1339.85,-601.18 1347.86,-603.43 1355.1,-605.71 1361.53,-608.01 1367.13,-610.33 1371.87,-612.65 1375.74,-614.98 1378.73,-617.3 1380.81,-619.6 1381.99,-621.89 1382.27,-624.15 1381.65,-626.38 1380.13,-628.58 1377.72,-630.73 1374.45,-632.84 1370.33,-634.9 1365.39,-636.9 1359.65,-638.84 1353.13,-640.73 1345.89,-642.54 1337.94,-644.29 1329.33,-645.97 1320.1,-647.58 1310.3,-649.12 1299.96,-650.57 1289.14,-651.95 1277.87,-653.26 1266.22,-654.48 1254.22,-655.61 1241.92,-656.67 1229.38,-657.64 1216.64,-658.53 1203.74,-659.34 1190.74,-660.05 1177.67,-660.68 1164.59,-661.23 1151.52,-661.68 1138.52,-662.04 1125.61,-662.32 1112.84,-662.5 1100.23,-662.6 1087.83,-662.6 1075.65,-662.51 1063.72,-662.32 1052.06,-662.04 1040.71,-661.67 1029.67,-661.2 1018.97,-660.63 1008.61,-659.97 998.62,-659.21 989,-658.36 979.77,-657.4 970.92,-656.36 962.48,-655.21 954.43,-653.97 946.8,-652.64 939.57,-651.21 932.76,-649.69 926.37,-648.09 920.39,-646.39 914.84,-644.61 909.71,-642.75 905,-640.82 900.73,-638.81 896.88,-636.73 893.47,-634.58 890.49,-632.38 887.96,-630.12 885.87,-627.81 884.24,-625.46 883.07,-623.08 882.36,-620.67 882.13,-618.24 882.38,-615.79 883.12,-613.34 884.35,-610.89 886.1,-608.46 888.35,-606.04 891.14,-603.65 894.45,-601.3 898.3,-599 902.69,-596.74 907.64,-594.56 913.13,-592.44 919.19,-590.4 925.8,-588.45 932.97,-586.59 940.69,-584.84 948.95,-583.19 957.76,-581.67 967.11,-580.26 976.97,-578.98 987.33,-577.83 998.18,-576.82 1009.49,-575.96 1021.25,-575.23 1033.42,-574.66 1045.97,-574.23 1058.88,-573.96 1072.1,-573.83 1085.6,-573.86 1099.34,-574.04 1113.27,-574.37 1127.35,-574.85 1141.54,-575.47 1155.78,-576.23 1170.02,-577.14 1184.2,-578.18 1198.29,-579.34 1212.22,-580.63 1225.93,-582.05 1239.38,-583.57 1252.51,-585.2 1265.26,-586.93 1277.59,-588.75"/>
<text text-anchor="middle" x="1112.79" y="-617.12" font-family="sans-serif" font-size="16.00">ProcesamientoLimpiezaDatosContext</text>
</g>
<!-- CapturaDatosManualContext&#45;&gt;ProcesamientoLimpiezaDatosContext -->
<g id="edge6" class="edge">
<title>CapturaDatosManualContext&#45;&gt;ProcesamientoLimpiezaDatosContext</title>
<path fill="none" stroke="black" stroke-width="2" d="M958.14,-722.12C987.31,-703.22 1021.79,-680.88 1050.79,-662.09"/>
<text text-anchor="middle" x="1086.29" y="-689.62" font-family="sans-serif" font-size="12.00"> &#160;&#160;&#160;&#160;&#160;&#160;&#160;&#160;&#160;&#160;&#160;&#160;&#160;&#160;&#160;&#160;&#160;&#160;&#160;&#160;&#160;&#160;&#160;&#160;&#160;&#160;&#160;&#160;&#160;&#160;&#160;&#160;&#160;&#160;&#160;&#160;&#160;&#160;&#160;</text>
<polygon fill="white" stroke="transparent" points="1043.79,-653.09 1043.79,-670.09 1057.79,-670.09 1057.79,-653.09 1043.79,-653.09"/>
<text text-anchor="start" x="1045.79" y="-658.49" font-family="sans-serif" font-size="12.00">D</text>
<polygon fill="white" stroke="transparent" points="951.14,-713.12 951.14,-730.12 965.14,-730.12 965.14,-713.12 951.14,-713.12"/>
<text text-anchor="start" x="953.14" y="-718.52" font-family="sans-serif" font-size="12.00">U</text>
</g>
<!-- ValidacionDatosContext -->
<g id="node9" class="node">
<title>ValidacionDatosContext</title>
<polygon fill="none" stroke="black" stroke-width="2" points="1009.03,-442.15 1017.49,-440.34 1026.19,-438.63 1035.09,-437.03 1044.16,-435.56 1053.35,-434.21 1062.65,-433 1072,-431.92 1081.39,-430.99 1090.78,-430.2 1100.13,-429.57 1109.42,-429.09 1118.62,-428.76 1127.7,-428.59 1136.63,-428.58 1145.4,-428.73 1153.97,-429.04 1162.32,-429.5 1170.45,-430.12 1178.32,-430.88 1185.92,-431.8 1193.25,-432.86 1200.27,-434.05 1207,-435.38 1213.41,-436.84 1219.49,-438.42 1225.24,-440.11 1230.66,-441.91 1235.74,-443.81 1240.48,-445.8 1244.87,-447.88 1248.92,-450.03 1252.62,-452.24 1255.98,-454.51 1258.99,-456.83 1261.65,-459.19 1263.98,-461.58 1265.96,-464 1267.61,-466.42 1268.92,-468.86 1269.89,-471.29 1270.53,-473.71 1270.84,-476.11 1270.82,-478.49 1270.47,-480.83 1269.8,-483.14 1268.79,-485.4 1267.47,-487.62 1265.81,-489.78 1263.83,-491.88 1261.52,-493.91 1258.89,-495.88 1255.92,-497.77 1252.64,-499.6 1249.02,-501.34 1245.09,-503 1240.82,-504.58 1236.23,-506.08 1231.32,-507.5 1226.09,-508.82 1220.55,-510.06 1214.69,-511.22 1208.53,-512.28 1202.06,-513.26 1195.31,-514.15 1188.27,-514.95 1180.96,-515.66 1173.38,-516.28 1165.56,-516.82 1157.51,-517.26 1149.24,-517.62 1140.78,-517.89 1132.13,-518.08 1123.33,-518.18 1114.4,-518.19 1105.36,-518.11 1096.23,-517.94 1087.05,-517.69 1077.84,-517.35 1068.64,-516.92 1059.46,-516.4 1050.36,-515.8 1041.35,-515.1 1032.47,-514.32 1023.75,-513.45 1015.23,-512.49 1006.94,-511.44 998.91,-510.3 991.18,-509.08 983.77,-507.76 976.73,-506.36 970.07,-504.88 963.83,-503.3 958.04,-501.65 952.72,-499.92 947.9,-498.11 943.59,-496.22 939.82,-494.26 936.61,-492.23 933.97,-490.13 931.91,-487.98 930.44,-485.77 929.58,-483.51 929.32,-481.2 929.67,-478.85 930.62,-476.47 932.18,-474.07 934.33,-471.65 937.07,-469.21 940.39,-466.77 944.26,-464.34 948.68,-461.92 953.63,-459.52 959.07,-457.15 964.99,-454.82 971.37,-452.54 978.17,-450.32 985.37,-448.16 992.93,-446.07 1000.83,-444.07 1009.03,-442.15"/>
<text text-anchor="middle" x="1112.79" y="-472.81" font-family="sans-serif" font-size="16.00">ValidacionDatosContext</text>
</g>
<!-- ProcesamientoLimpiezaDatosContext&#45;&gt;ValidacionDatosContext -->
<g id="edge7" class="edge">
<title>ProcesamientoLimpiezaDatosContext&#45;&gt;ValidacionDatosContext</title>
<path fill="none" stroke="black" stroke-width="2" d="M1112.79,-574.11C1112.79,-556.24 1112.79,-535.91 1112.79,-518.53"/>
<text text-anchor="middle" x="1188.29" y="-546.03" font-family="sans-serif" font-size="12.00"> &#160;&#160;&#160;&#160;&#160;&#160;&#160;&#160;&#160;&#160;&#160;&#160;&#160;&#160;&#160;&#160;&#160;&#160;&#160;&#160;&#160;&#160;&#160;&#160;&#160;&#160;&#160;&#160;&#160;&#160;&#160;&#160;&#160;&#160;&#160;&#160;&#160;&#160;&#160;</text>
<polygon fill="white" stroke="transparent" points="1105.79,-509.53 1105.79,-526.53 1119.79,-526.53 1119.79,-509.53 1105.79,-509.53"/>
<text text-anchor="start" x="1107.79" y="-514.93" font-family="sans-serif" font-size="12.00">D</text>
<polygon fill="white" stroke="transparent" points="1105.79,-565.11 1105.79,-582.11 1119.79,-582.11 1119.79,-565.11 1105.79,-565.11"/>
<text text-anchor="start" x="1107.79" y="-570.51" font-family="sans-serif" font-size="12.00">U</text>
</g>
<!-- EnriquecimientoDatosContext -->
<g id="node10" class="node">
<title>EnriquecimientoDatosContext</title>
<polygon fill="none" stroke="black" stroke-width="2" points="1174.06,-293.48 1186.71,-294.3 1199.11,-295.24 1211.21,-296.29 1222.96,-297.43 1234.31,-298.68 1245.23,-300.02 1255.66,-301.45 1265.56,-302.97 1274.9,-304.57 1283.65,-306.25 1291.76,-308 1299.22,-309.82 1306,-311.69 1312.07,-313.63 1317.43,-315.62 1322.06,-317.65 1325.94,-319.72 1329.09,-321.83 1331.48,-323.97 1333.13,-326.13 1334.05,-328.31 1334.24,-330.5 1333.71,-332.7 1332.48,-334.91 1330.57,-337.11 1328,-339.3 1324.8,-341.48 1320.99,-343.65 1316.61,-345.78 1311.67,-347.89 1306.21,-349.97 1300.27,-352.01 1293.87,-354 1287.06,-355.95 1279.87,-357.84 1272.32,-359.68 1264.46,-361.46 1256.31,-363.17 1247.92,-364.81 1239.31,-366.38 1230.51,-367.86 1221.56,-369.27 1212.48,-370.59 1203.3,-371.82 1194.04,-372.96 1184.73,-374.01 1175.39,-374.95 1166.03,-375.8 1156.69,-376.54 1147.37,-377.17 1138.08,-377.7 1128.85,-378.11 1119.69,-378.41 1110.6,-378.6 1101.59,-378.67 1092.67,-378.62 1083.86,-378.46 1075.15,-378.18 1066.55,-377.79 1058.07,-377.27 1049.72,-376.65 1041.49,-375.9 1033.4,-375.04 1025.44,-374.07 1017.63,-372.99 1009.98,-371.79 1002.48,-370.5 995.15,-369.1 988.01,-367.6 981.04,-366 974.28,-364.31 967.74,-362.54 961.42,-360.68 955.34,-358.75 949.53,-356.74 943.99,-354.67 938.75,-352.53 933.82,-350.34 929.23,-348.1 925,-345.82 921.16,-343.51 917.71,-341.16 914.69,-338.8 912.12,-336.42 910.03,-334.03 908.42,-331.65 907.34,-329.27 906.78,-326.91 906.79,-324.57 907.37,-322.25 908.53,-319.98 910.31,-317.75 912.7,-315.57 915.71,-313.45 919.36,-311.39 923.65,-309.4 928.58,-307.49 934.14,-305.66 940.34,-303.92 947.17,-302.27 954.61,-300.72 962.65,-299.27 971.28,-297.93 980.46,-296.7 990.17,-295.58 1000.4,-294.58 1011.09,-293.7 1022.23,-292.93 1033.77,-292.29 1045.67,-291.78 1057.88,-291.39 1070.37,-291.13 1083.09,-290.99 1095.97,-290.98 1108.99,-291.09 1122.07,-291.33 1135.17,-291.69 1148.24,-292.17 1161.23,-292.76 1174.06,-293.48"/>
<text text-anchor="middle" x="1112.79" y="-331.43" font-family="sans-serif" font-size="16.00">EnriquecimientoDatosContext</text>
</g>
<!-- ValidacionDatosContext&#45;&gt;EnriquecimientoDatosContext -->
<g id="edge8" class="edge">
<title>ValidacionDatosContext&#45;&gt;EnriquecimientoDatosContext</title>
<path fill="none" stroke="black" stroke-width="2" d="M1112.79,-428.81C1112.79,-412.68 1112.79,-394.7 1112.79,-378.91"/>
<text text-anchor="middle" x="1188.29" y="-401" font-family="sans-serif" font-size="12.00"> &#160;&#160;&#160;&#160;&#160;&#160;&#160;&#160;&#160;&#160;&#160;&#160;&#160;&#160;&#160;&#160;&#160;&#160;&#160;&#160;&#160;&#160;&#160;&#160;&#160;&#160;&#160;&#160;&#160;&#160;&#160;&#160;&#160;&#160;&#160;&#160;&#160;&#160;&#160;</text>
<polygon fill="white" stroke="transparent" points="1105.79,-369.91 1105.79,-386.91 1119.79,-386.91 1119.79,-369.91 1105.79,-369.91"/>
<text text-anchor="start" x="1107.79" y="-375.31" font-family="sans-serif" font-size="12.00">D</text>
<polygon fill="white" stroke="transparent" points="1105.79,-419.81 1105.79,-436.81 1119.79,-436.81 1119.79,-419.81 1105.79,-419.81"/>
<text text-anchor="start" x="1107.79" y="-425.21" font-family="sans-serif" font-size="12.00">U</text>
</g>
<!-- EnriquecimientoDatosContext&#45;&gt;AnaliticaContext -->
<g id="edge9" class="edge">
<title>EnriquecimientoDatosContext&#45;&gt;AnaliticaContext</title>
<path fill="none" stroke="black" stroke-width="2" d="M1112.79,-291.01C1112.79,-275.24 1112.79,-257.34 1112.79,-241.32"/>
<text text-anchor="middle" x="1188.29" y="-263.25" font-family="sans-serif" font-size="12.00"> &#160;&#160;&#160;&#160;&#160;&#160;&#160;&#160;&#160;&#160;&#160;&#160;&#160;&#160;&#160;&#160;&#160;&#160;&#160;&#160;&#160;&#160;&#160;&#160;&#160;&#160;&#160;&#160;&#160;&#160;&#160;&#160;&#160;&#160;&#160;&#160;&#160;&#160;&#160;</text>
<polygon fill="white" stroke="transparent" points="1105.79,-232.32 1105.79,-249.32 1119.79,-249.32 1119.79,-232.32 1105.79,-232.32"/>
<text text-anchor="start" x="1107.79" y="-237.72" font-family="sans-serif" font-size="12.00">D</text>
<polygon fill="white" stroke="transparent" points="1105.79,-282.01 1105.79,-299.01 1119.79,-299.01 1119.79,-282.01 1105.79,-282.01"/>
<text text-anchor="start" x="1107.79" y="-287.41" font-family="sans-serif" font-size="12.00">U</text>
</g>
<!-- IngestaDatosFuenteContext -->
<g id="node11" class="node">
<title>IngestaDatosFuenteContext</title>
<polygon fill="none" stroke="black" stroke-width="2" points="1356.99,-720.75 1369.28,-721.09 1381.42,-721.55 1393.37,-722.12 1405.08,-722.81 1416.49,-723.61 1427.57,-724.52 1438.27,-725.54 1448.55,-726.66 1458.37,-727.88 1467.7,-729.21 1476.5,-730.62 1484.75,-732.13 1492.41,-733.73 1499.47,-735.4 1505.91,-737.16 1511.7,-738.98 1516.85,-740.88 1521.33,-742.83 1525.14,-744.85 1528.29,-746.91 1530.77,-749.03 1532.59,-751.18 1533.76,-753.37 1534.28,-755.58 1534.17,-757.82 1533.45,-760.08 1532.13,-762.35 1530.24,-764.62 1527.8,-766.89 1524.83,-769.15 1521.35,-771.4 1517.4,-773.63 1512.99,-775.84 1508.17,-778.01 1502.95,-780.15 1497.37,-782.24 1491.45,-784.28 1485.21,-786.27 1478.7,-788.21 1471.93,-790.07 1464.93,-791.87 1457.73,-793.59 1450.34,-795.23 1442.79,-796.79 1435.1,-798.26 1427.3,-799.64 1419.39,-800.92 1411.39,-802.11 1403.32,-803.19 1395.19,-804.16 1387.02,-805.02 1378.81,-805.78 1370.58,-806.42 1362.33,-806.95 1354.07,-807.36 1345.81,-807.65 1337.56,-807.82 1329.31,-807.87 1321.08,-807.81 1312.87,-807.62 1304.69,-807.32 1296.54,-806.89 1288.42,-806.35 1280.35,-805.69 1272.33,-804.92 1264.37,-804.03 1256.48,-803.04 1248.67,-801.94 1240.95,-800.73 1233.32,-799.42 1225.82,-798.01 1218.45,-796.51 1211.22,-794.92 1204.16,-793.24 1197.29,-791.49 1190.62,-789.65 1184.18,-787.75 1177.99,-785.78 1172.07,-783.75 1166.46,-781.66 1161.17,-779.53 1156.23,-777.35 1151.67,-775.13 1147.51,-772.89 1143.78,-770.62 1140.51,-768.33 1137.72,-766.03 1135.44,-763.72 1133.69,-761.42 1132.49,-759.12 1131.86,-756.84 1131.82,-754.58 1132.39,-752.34 1133.58,-750.14 1135.4,-747.97 1137.86,-745.85 1140.98,-743.79 1144.74,-741.78 1149.15,-739.83 1154.22,-737.95 1159.92,-736.14 1166.25,-734.41 1173.2,-732.77 1180.75,-731.21 1188.87,-729.74 1197.56,-728.37 1206.76,-727.1 1216.47,-725.93 1226.64,-724.87 1237.23,-723.91 1248.21,-723.07 1259.54,-722.34 1271.17,-721.73 1283.05,-721.23 1295.14,-720.85 1307.39,-720.59 1319.76,-720.45 1332.18,-720.43 1344.6,-720.53 1356.99,-720.75"/>
<text text-anchor="middle" x="1331.79" y="-760.36" font-family="sans-serif" font-size="16.00">IngestaDatosFuenteContext</text>
</g>
<!-- IngestaDatosFuenteContext&#45;&gt;ProcesamientoLimpiezaDatosContext -->
<g id="edge10" class="edge">
<title>IngestaDatosFuenteContext&#45;&gt;ProcesamientoLimpiezaDatosContext</title>
<path fill="none" stroke="black" stroke-width="2" d="M1267.57,-721.74C1237.78,-702.53 1202.57,-679.82 1173.26,-660.92"/>
<text text-anchor="middle" x="1304.29" y="-689.62" font-family="sans-serif" font-size="12.00"> &#160;&#160;&#160;&#160;&#160;&#160;&#160;&#160;&#160;&#160;&#160;&#160;&#160;&#160;&#160;&#160;&#160;&#160;&#160;&#160;&#160;&#160;&#160;&#160;&#160;&#160;&#160;&#160;&#160;&#160;&#160;&#160;&#160;&#160;&#160;&#160;&#160;&#160;&#160;</text>
<polygon fill="white" stroke="transparent" points="1166.26,-651.92 1166.26,-668.92 1180.26,-668.92 1180.26,-651.92 1166.26,-651.92"/>
<text text-anchor="start" x="1168.26" y="-657.32" font-family="sans-serif" font-size="12.00">D</text>
<polygon fill="white" stroke="transparent" points="1260.57,-712.74 1260.57,-729.74 1274.57,-729.74 1274.57,-712.74 1260.57,-712.74"/>
<text text-anchor="start" x="1262.57" y="-718.14" font-family="sans-serif" font-size="12.00">U</text>
</g>
</g>
</svg>
