<svg width="2000px" height="903px"
 viewBox="0.00 0.00 1207.20 544.56" xmlns="http://www.w3.org/2000/svg" xmlns:xlink="http://www.w3.org/1999/xlink">
<g id="graph0" class="graph" transform="scale(1.0 1.0) rotate(0) translate(4 540.56)">
<title>ContextMapGraph</title>
<polygon fill="white" stroke="transparent" points="-4,4 -4,-540.56 1203.2,-540.56 1203.2,4 -4,4"/>
<!-- DataOpsContext -->
<g id="node1" class="node">
<title>DataOpsContext</title>
<polygon fill="none" stroke="black" stroke-width="2" points="184.52,-154.49 192.17,-155.51 199.65,-156.63 206.92,-157.85 213.95,-159.17 220.72,-160.58 227.2,-162.08 233.36,-163.66 239.18,-165.32 244.64,-167.05 249.71,-168.86 254.37,-170.72 258.62,-172.64 262.44,-174.61 265.81,-176.63 268.72,-178.68 271.18,-180.78 273.17,-182.9 274.69,-185.04 275.74,-187.2 276.33,-189.38 276.46,-191.56 276.14,-193.75 275.38,-195.93 274.18,-198.11 272.56,-200.27 270.53,-202.41 268.12,-204.53 265.34,-206.63 262.2,-208.69 258.72,-210.71 254.94,-212.7 250.86,-214.64 246.51,-216.53 241.91,-218.36 237.08,-220.14 232.05,-221.85 226.84,-223.5 221.46,-225.08 215.95,-226.59 210.31,-228.01 204.58,-229.36 198.76,-230.63 192.89,-231.81 186.97,-232.89 181.02,-233.89 175.05,-234.79 169.09,-235.59 163.14,-236.28 157.21,-236.88 151.33,-237.37 145.48,-237.75 139.7,-238.02 133.97,-238.18 128.31,-238.23 122.73,-238.17 117.23,-237.99 111.81,-237.7 106.48,-237.29 101.25,-236.76 96.11,-236.13 91.07,-235.37 86.13,-234.51 81.3,-233.53 76.58,-232.44 71.97,-231.25 67.47,-229.95 63.1,-228.54 58.85,-227.04 54.73,-225.44 50.75,-223.75 46.9,-221.97 43.21,-220.1 39.68,-218.16 36.31,-216.14 33.11,-214.06 30.1,-211.91 27.29,-209.71 24.68,-207.45 22.29,-205.16 20.13,-202.82 18.21,-200.46 16.55,-198.08 15.16,-195.68 14.04,-193.27 13.22,-190.87 12.71,-188.47 12.51,-186.09 12.64,-183.73 13.11,-181.4 13.93,-179.11 15.11,-176.86 16.65,-174.67 18.56,-172.54 20.84,-170.47 23.51,-168.48 26.56,-166.56 29.98,-164.74 33.79,-163 37.97,-161.36 42.52,-159.82 47.43,-158.39 52.69,-157.07 58.28,-155.87 64.21,-154.78 70.44,-153.81 76.95,-152.97 83.74,-152.25 90.78,-151.66 98.04,-151.2 105.49,-150.87 113.12,-150.67 120.9,-150.59 128.78,-150.65 136.75,-150.83 144.77,-151.14 152.81,-151.57 160.84,-152.12 168.82,-152.8 176.73,-153.59 184.52,-154.49"/>
<text text-anchor="middle" x="138.32" y="-191.31" font-family="sans-serif" font-size="16.00">DataOpsContext</text>
</g>
<!-- FinancialContext -->
<g id="node2" class="node">
<title>FinancialContext</title>
<polygon fill="none" stroke="black" stroke-width="2" points="30,-322.06 33.47,-319.44 37.24,-316.9 41.29,-314.43 45.6,-312.05 50.17,-309.77 54.97,-307.6 59.98,-305.55 65.2,-303.62 70.61,-301.83 76.18,-300.17 81.9,-298.67 87.76,-297.31 93.74,-296.11 99.81,-295.07 105.98,-294.19 112.2,-293.47 118.49,-292.92 124.8,-292.54 131.14,-292.32 137.48,-292.27 143.81,-292.38 150.11,-292.64 156.38,-293.06 162.59,-293.64 168.74,-294.36 174.8,-295.22 180.77,-296.22 186.63,-297.34 192.38,-298.59 198,-299.95 203.47,-301.42 208.8,-302.99 213.96,-304.66 218.95,-306.4 223.75,-308.22 228.36,-310.11 232.76,-312.06 236.95,-314.05 240.92,-316.1 244.66,-318.18 248.16,-320.29 251.41,-322.42 254.41,-324.56 257.14,-326.72 259.6,-328.88 261.78,-331.04 263.67,-333.19 265.27,-335.33 266.58,-337.45 267.58,-339.55 268.27,-341.63 268.65,-343.69 268.71,-345.71 268.46,-347.7 267.88,-349.65 266.97,-351.57 265.74,-353.46 264.18,-355.3 262.29,-357.1 260.08,-358.86 257.55,-360.58 254.69,-362.25 251.52,-363.88 248.04,-365.46 244.26,-367 240.17,-368.48 235.8,-369.92 231.15,-371.31 226.22,-372.64 221.04,-373.92 215.61,-375.15 209.96,-376.31 204.08,-377.42 198,-378.46 191.74,-379.44 185.31,-380.34 178.73,-381.18 172.03,-381.93 165.21,-382.61 158.3,-383.2 151.33,-383.71 144.31,-384.13 137.27,-384.45 130.22,-384.67 123.2,-384.79 116.22,-384.8 109.31,-384.7 102.49,-384.49 95.78,-384.16 89.21,-383.71 82.79,-383.14 76.55,-382.45 70.51,-381.63 64.69,-380.68 59.11,-379.6 53.79,-378.39 48.74,-377.06 43.98,-375.6 39.53,-374.02 35.4,-372.31 31.61,-370.49 28.16,-368.55 25.06,-366.5 22.33,-364.34 19.97,-362.08 17.99,-359.74 16.39,-357.3 15.18,-354.79 14.36,-352.21 13.92,-349.56 13.87,-346.87 14.21,-344.13 14.92,-341.37 16.01,-338.58 17.47,-335.79 19.29,-332.99 21.47,-330.21 23.98,-327.45 26.83,-324.73 30,-322.06"/>
<text text-anchor="middle" x="144.32" y="-337.35" font-family="sans-serif" font-size="16.00">FinancialContext</text>
</g>
<!-- IngenieriaDatosContext -->
<g id="node3" class="node">
<title>IngenieriaDatosContext</title>
<polygon fill="none" stroke="black" stroke-width="2" points="434.19,-383.93 423.62,-383.3 413.22,-382.54 403.04,-381.68 393.12,-380.71 383.49,-379.63 374.2,-378.45 365.29,-377.18 356.78,-375.8 348.71,-374.34 341.11,-372.79 334,-371.16 327.41,-369.45 321.37,-367.67 315.89,-365.83 310.97,-363.92 306.65,-361.95 302.92,-359.93 299.79,-357.86 297.26,-355.76 295.34,-353.62 294.02,-351.44 293.28,-349.25 293.13,-347.03 293.56,-344.8 294.54,-342.57 296.06,-340.33 298.1,-338.09 300.65,-335.87 303.68,-333.66 307.16,-331.47 311.08,-329.3 315.41,-327.17 320.12,-325.07 325.18,-323.02 330.57,-321.01 336.26,-319.05 342.23,-317.15 348.45,-315.31 354.88,-313.54 361.52,-311.84 368.33,-310.21 375.28,-308.67 382.37,-307.2 389.56,-305.83 396.84,-304.55 404.18,-303.36 411.58,-302.27 419.02,-301.28 426.47,-300.4 433.94,-299.62 441.4,-298.95 448.84,-298.4 456.27,-297.96 463.66,-297.63 471.02,-297.42 478.33,-297.33 485.59,-297.36 492.79,-297.51 499.93,-297.77 507.01,-298.16 514.02,-298.66 520.95,-299.28 527.8,-300.02 534.57,-300.88 541.25,-301.84 547.83,-302.92 554.31,-304.11 560.68,-305.4 566.93,-306.8 573.05,-308.29 579.03,-309.88 584.86,-311.56 590.52,-313.32 596,-315.17 601.3,-317.1 606.38,-319.09 611.23,-321.15 615.84,-323.27 620.19,-325.45 624.26,-327.67 628.02,-329.93 631.46,-332.23 634.55,-334.56 637.29,-336.9 639.63,-339.26 641.58,-341.63 643.09,-344 644.17,-346.36 644.78,-348.7 644.92,-351.03 644.57,-353.33 643.7,-355.59 642.32,-357.81 640.42,-359.98 637.97,-362.1 634.99,-364.16 631.46,-366.15 627.38,-368.07 622.77,-369.91 617.61,-371.67 611.93,-373.34 605.73,-374.91 599.03,-376.39 591.84,-377.76 584.18,-379.03 576.07,-380.19 567.55,-381.24 558.63,-382.17 549.36,-382.99 539.75,-383.68 529.85,-384.26 519.7,-384.71 509.33,-385.04 498.78,-385.25 488.1,-385.34 477.32,-385.3 466.5,-385.14 455.67,-384.86 444.89,-384.45 434.19,-383.93"/>
<text text-anchor="middle" x="473.32" y="-337.35" font-family="sans-serif" font-size="16.00">IngenieriaDatosContext</text>
</g>
<!-- IngenieriaDatosContext&#45;&gt;DataOpsContext -->
<g id="edge2" class="edge">
<title>IngenieriaDatosContext&#45;&gt;DataOpsContext</title>
<path fill="none" stroke="black" stroke-width="2" d="M392.23,-305.28C337.23,-281.63 265.13,-250.63 211.81,-227.71"/>
<text text-anchor="middle" x="391.82" y="-264.86" font-family="sans-serif" font-size="12.00"> &#160;&#160;&#160;&#160;&#160;&#160;&#160;&#160;&#160;&#160;&#160;&#160;&#160;&#160;&#160;&#160;&#160;&#160;&#160;&#160;&#160;&#160;&#160;&#160;&#160;&#160;&#160;&#160;&#160;&#160;&#160;&#160;&#160;&#160;&#160;&#160;&#160;&#160;&#160;</text>
<polygon fill="white" stroke="transparent" points="204.81,-218.71 204.81,-235.71 218.81,-235.71 218.81,-218.71 204.81,-218.71"/>
<text text-anchor="start" x="206.81" y="-224.11" font-family="sans-serif" font-size="12.00">D</text>
<polygon fill="white" stroke="transparent" points="385.23,-296.28 385.23,-313.28 399.23,-313.28 399.23,-296.28 385.23,-296.28"/>
<text text-anchor="start" x="387.23" y="-301.68" font-family="sans-serif" font-size="12.00">U</text>
</g>
<!-- IngenieriaSoftwareContext -->
<g id="node4" class="node">
<title>IngenieriaSoftwareContext</title>
<polygon fill="none" stroke="black" stroke-width="2" points="616.54,-227.47 607.83,-229.43 598.83,-231.29 589.59,-233.04 580.12,-234.67 570.48,-236.18 560.69,-237.55 550.8,-238.79 540.83,-239.89 530.81,-240.85 520.79,-241.65 510.8,-242.3 500.86,-242.79 491,-243.12 481.25,-243.29 471.65,-243.31 462.21,-243.16 452.96,-242.85 443.92,-242.39 435.11,-241.77 426.54,-241 418.25,-240.08 410.23,-239.02 402.51,-237.82 395.09,-236.49 388,-235.03 381.23,-233.45 374.79,-231.76 368.7,-229.96 362.95,-228.07 357.56,-226.09 352.52,-224.03 347.84,-221.9 343.52,-219.7 339.56,-217.45 335.97,-215.15 332.74,-212.82 329.87,-210.45 327.37,-208.07 325.24,-205.68 323.47,-203.28 322.07,-200.88 321.03,-198.5 320.36,-196.14 320.06,-193.8 320.13,-191.49 320.57,-189.22 321.37,-187 322.55,-184.82 324.11,-182.7 326.03,-180.63 328.34,-178.63 331.02,-176.69 334.07,-174.82 337.51,-173.02 341.32,-171.29 345.52,-169.64 350.09,-168.07 355.04,-166.58 360.36,-165.16 366.05,-163.83 372.1,-162.57 378.52,-161.4 385.29,-160.31 392.4,-159.31 399.85,-158.38 407.62,-157.54 415.7,-156.78 424.08,-156.11 432.73,-155.52 441.65,-155.01 450.81,-154.58 460.18,-154.24 469.76,-153.99 479.5,-153.81 489.39,-153.72 499.39,-153.72 509.48,-153.81 519.63,-153.98 529.8,-154.23 539.95,-154.58 550.07,-155.02 560.1,-155.54 570.01,-156.16 579.78,-156.86 589.35,-157.66 598.7,-158.56 607.79,-159.54 616.59,-160.62 625.04,-161.79 633.14,-163.05 640.83,-164.41 648.09,-165.85 654.89,-167.39 661.2,-169.02 666.99,-170.73 672.23,-172.53 676.92,-174.41 681.01,-176.37 684.5,-178.4 687.37,-180.51 689.61,-182.68 691.21,-184.91 692.17,-187.2 692.47,-189.54 692.12,-191.92 691.12,-194.34 689.47,-196.79 687.19,-199.26 684.28,-201.74 680.76,-204.23 676.64,-206.72 671.94,-209.19 666.69,-211.65 660.9,-214.07 654.61,-216.46 647.83,-218.79 640.61,-221.07 632.96,-223.28 624.93,-225.42 616.54,-227.47"/>
<text text-anchor="middle" x="493.32" y="-191.31" font-family="sans-serif" font-size="16.00">IngenieriaSoftwareContext</text>
</g>
<!-- IngenieriaDatosContext&#45;&gt;IngenieriaSoftwareContext -->
<g id="edge1" class="edge">
<title>IngenieriaDatosContext&#45;&gt;IngenieriaSoftwareContext</title>
<path fill="none" stroke="black" stroke-width="2" d="M479.27,-297.32C481.63,-280.32 484.35,-260.71 486.77,-243.3"/>
<text text-anchor="middle" x="559.82" y="-264.86" font-family="sans-serif" font-size="12.00"> &#160;&#160;&#160;&#160;&#160;&#160;&#160;&#160;&#160;&#160;&#160;&#160;&#160;&#160;&#160;&#160;&#160;&#160;&#160;&#160;&#160;&#160;&#160;&#160;&#160;&#160;&#160;&#160;&#160;&#160;&#160;&#160;&#160;&#160;&#160;&#160;&#160;&#160;&#160;</text>
<polygon fill="white" stroke="transparent" points="479.77,-234.3 479.77,-251.3 493.77,-251.3 493.77,-234.3 479.77,-234.3"/>
<text text-anchor="start" x="481.77" y="-239.7" font-family="sans-serif" font-size="12.00">D</text>
<polygon fill="white" stroke="transparent" points="472.27,-288.32 472.27,-305.32 486.27,-305.32 486.27,-288.32 472.27,-288.32"/>
<text text-anchor="start" x="474.27" y="-293.72" font-family="sans-serif" font-size="12.00">U</text>
</g>
<!-- TecnologiaContext -->
<g id="node5" class="node">
<title>TecnologiaContext</title>
<polygon fill="none" stroke="black" stroke-width="2" points="422.13,-75.63 416.8,-77.92 411.21,-80.13 405.37,-82.23 399.32,-84.23 393.06,-86.12 386.63,-87.88 380.04,-89.51 373.32,-91.01 366.5,-92.37 359.58,-93.57 352.61,-94.63 345.58,-95.52 338.54,-96.26 331.49,-96.84 324.45,-97.25 317.45,-97.49 310.5,-97.58 303.62,-97.5 296.83,-97.25 290.13,-96.85 283.56,-96.29 277.11,-95.58 270.8,-94.72 264.64,-93.71 258.65,-92.57 252.84,-91.3 247.21,-89.9 241.77,-88.39 236.54,-86.76 231.51,-85.04 226.71,-83.22 222.12,-81.31 217.77,-79.33 213.65,-77.27 209.78,-75.16 206.15,-73 202.77,-70.79 199.65,-68.55 196.8,-66.28 194.2,-63.99 191.88,-61.69 189.84,-59.38 188.07,-57.08 186.59,-54.79 185.39,-52.52 184.49,-50.27 183.88,-48.04 183.57,-45.85 183.56,-43.69 183.86,-41.58 184.46,-39.51 185.38,-37.49 186.62,-35.52 188.16,-33.6 190.03,-31.75 192.21,-29.95 194.71,-28.21 197.53,-26.53 200.67,-24.91 204.12,-23.36 207.89,-21.88 211.96,-20.46 216.33,-19.1 221,-17.82 225.96,-16.6 231.21,-15.45 236.72,-14.36 242.5,-13.35 248.53,-12.41 254.79,-11.54 261.27,-10.74 267.96,-10.01 274.84,-9.36 281.89,-8.78 289.1,-8.29 296.43,-7.87 303.87,-7.53 311.4,-7.28 319,-7.11 326.63,-7.03 334.28,-7.04 341.92,-7.14 349.52,-7.33 357.06,-7.62 364.51,-8.01 371.85,-8.5 379.04,-9.09 386.07,-9.79 392.91,-10.59 399.52,-11.49 405.89,-12.51 412,-13.63 417.81,-14.87 423.31,-16.2 428.48,-17.65 433.3,-19.2 437.75,-20.86 441.81,-22.62 445.46,-24.48 448.71,-26.43 451.52,-28.48 453.9,-30.61 455.83,-32.82 457.32,-35.11 458.35,-37.47 458.92,-39.9 459.03,-42.38 458.69,-44.91 457.9,-47.47 456.66,-50.07 454.98,-52.69 452.88,-55.32 450.35,-57.96 447.42,-60.59 444.09,-63.2 440.39,-65.78 436.32,-68.33 431.91,-70.82 427.17,-73.26 422.13,-75.63"/>
<text text-anchor="middle" x="314.32" y="-45.08" font-family="sans-serif" font-size="16.00">TecnologiaContext</text>
</g>
<!-- IngenieriaSoftwareContext&#45;&gt;TecnologiaContext -->
<g id="edge3" class="edge">
<title>IngenieriaSoftwareContext&#45;&gt;TecnologiaContext</title>
<path fill="none" stroke="black" stroke-width="2" d="M444.41,-154.7C420.5,-135.43 391.68,-112.21 367.26,-92.53"/>
<text text-anchor="middle" x="484.82" y="-119.16" font-family="sans-serif" font-size="12.00"> &#160;&#160;&#160;&#160;&#160;&#160;&#160;&#160;&#160;&#160;&#160;&#160;&#160;&#160;&#160;&#160;&#160;&#160;&#160;&#160;&#160;&#160;&#160;&#160;&#160;&#160;&#160;&#160;&#160;&#160;&#160;&#160;&#160;&#160;&#160;&#160;&#160;&#160;&#160;</text>
<polygon fill="white" stroke="transparent" points="360.26,-83.53 360.26,-100.53 374.26,-100.53 374.26,-83.53 360.26,-83.53"/>
<text text-anchor="start" x="362.26" y="-88.93" font-family="sans-serif" font-size="12.00">D</text>
<polygon fill="white" stroke="transparent" points="437.41,-145.7 437.41,-162.7 451.41,-162.7 451.41,-145.7 437.41,-145.7"/>
<text text-anchor="start" x="439.41" y="-151.1" font-family="sans-serif" font-size="12.00">U</text>
</g>
<!-- IngenieriafiabilidadContext -->
<g id="node6" class="node">
<title>IngenieriafiabilidadContext</title>
<polygon fill="none" stroke="black" stroke-width="2" points="515.49,-25.24 521.9,-22.81 528.7,-20.45 535.88,-18.19 543.39,-16.03 551.22,-13.97 559.33,-12.03 567.7,-10.22 576.3,-8.54 585.1,-7 594.07,-5.6 603.19,-4.35 612.43,-3.26 621.76,-2.33 631.16,-1.56 640.59,-0.95 650.04,-0.51 659.48,-0.23 668.88,-0.12 678.23,-0.17 687.5,-0.38 696.68,-0.76 705.73,-1.29 714.64,-1.97 723.4,-2.79 731.99,-3.76 740.39,-4.87 748.58,-6.1 756.55,-7.46 764.28,-8.93 771.77,-10.51 779,-12.2 785.95,-13.97 792.62,-15.82 798.99,-17.75 805.05,-19.75 810.8,-21.81 816.22,-23.91 821.3,-26.06 826.04,-28.24 830.42,-30.45 834.43,-32.68 838.07,-34.92 841.33,-37.16 844.2,-39.4 846.68,-41.64 848.74,-43.86 850.4,-46.06 851.64,-48.24 852.44,-50.39 852.82,-52.5 852.76,-54.58 852.26,-56.62 851.31,-58.62 849.91,-60.57 848.06,-62.48 845.75,-64.33 842.98,-66.14 839.76,-67.89 836.09,-69.59 831.96,-71.23 827.38,-72.82 822.36,-74.35 816.9,-75.82 811.01,-77.23 804.7,-78.59 797.98,-79.88 790.87,-81.12 783.37,-82.29 775.5,-83.4 767.29,-84.44 758.75,-85.42 749.9,-86.33 740.77,-87.17 731.37,-87.94 721.74,-88.64 711.91,-89.27 701.89,-89.81 691.72,-90.27 681.43,-90.66 671.06,-90.95 660.63,-91.16 650.19,-91.27 639.75,-91.29 629.37,-91.21 619.07,-91.04 608.89,-90.75 598.87,-90.37 589.03,-89.87 579.42,-89.26 570.07,-88.54 561.01,-87.71 552.27,-86.76 543.89,-85.7 535.9,-84.51 528.32,-83.22 521.18,-81.81 514.5,-80.28 508.32,-78.64 502.65,-76.89 497.5,-75.03 492.91,-73.07 488.88,-71.01 485.42,-68.86 482.55,-66.62 480.27,-64.29 478.6,-61.89 477.52,-59.43 477.05,-56.9 477.18,-54.31 477.9,-51.69 479.21,-49.03 481.11,-46.35 483.58,-43.65 486.6,-40.95 490.17,-38.25 494.26,-35.57 498.86,-32.92 503.94,-30.31 509.49,-27.74 515.49,-25.24"/>
<text text-anchor="middle" x="672.32" y="-45.08" font-family="sans-serif" font-size="16.00">IngenieriafiabilidadContext</text>
</g>
<!-- IngenieriaSoftwareContext&#45;&gt;IngenieriafiabilidadContext -->
<g id="edge4" class="edge">
<title>IngenieriaSoftwareContext&#45;&gt;IngenieriafiabilidadContext</title>
<path fill="none" stroke="black" stroke-width="2" d="M542.71,-154.32C567.03,-134.72 596.33,-111.11 620.91,-91.3"/>
<text text-anchor="middle" x="663.82" y="-119.16" font-family="sans-serif" font-size="12.00"> &#160;&#160;&#160;&#160;&#160;&#160;&#160;&#160;&#160;&#160;&#160;&#160;&#160;&#160;&#160;&#160;&#160;&#160;&#160;&#160;&#160;&#160;&#160;&#160;&#160;&#160;&#160;&#160;&#160;&#160;&#160;&#160;&#160;&#160;&#160;&#160;&#160;&#160;&#160;</text>
<polygon fill="white" stroke="transparent" points="613.91,-82.3 613.91,-99.3 627.91,-99.3 627.91,-82.3 613.91,-82.3"/>
<text text-anchor="start" x="615.91" y="-87.7" font-family="sans-serif" font-size="12.00">D</text>
<polygon fill="white" stroke="transparent" points="535.71,-145.32 535.71,-162.32 549.71,-162.32 549.71,-145.32 535.71,-145.32"/>
<text text-anchor="start" x="537.71" y="-150.72" font-family="sans-serif" font-size="12.00">U</text>
</g>
<!-- InternationalOperationsContext -->
<g id="node7" class="node">
<title>InternationalOperationsContext</title>
<polygon fill="none" stroke="black" stroke-width="2" points="988.02,-238.66 974.32,-238.97 960.64,-239.15 947.04,-239.22 933.59,-239.16 920.33,-238.97 907.32,-238.66 894.6,-238.23 882.22,-237.67 870.23,-236.99 858.67,-236.18 847.58,-235.26 836.99,-234.22 826.94,-233.07 817.46,-231.8 808.57,-230.43 800.3,-228.96 792.66,-227.38 785.68,-225.71 779.35,-223.95 773.69,-222.1 768.71,-220.17 764.4,-218.17 760.76,-216.1 757.79,-213.97 755.48,-211.79 753.82,-209.56 752.79,-207.28 752.38,-204.97 752.58,-202.64 753.35,-200.28 754.69,-197.91 756.56,-195.54 758.95,-193.16 761.83,-190.8 765.18,-188.45 768.97,-186.12 773.19,-183.82 777.79,-181.56 782.77,-179.34 788.1,-177.18 793.75,-175.07 799.7,-173.02 805.94,-171.03 812.45,-169.13 819.2,-167.3 826.18,-165.55 833.38,-163.89 840.78,-162.32 848.37,-160.85 856.14,-159.48 864.07,-158.22 872.16,-157.06 880.4,-156 888.79,-155.06 897.31,-154.24 905.96,-153.52 914.74,-152.93 923.63,-152.45 932.64,-152.08 941.75,-151.84 950.97,-151.71 960.28,-151.7 969.67,-151.81 979.15,-152.03 988.69,-152.36 998.29,-152.81 1007.94,-153.37 1017.62,-154.04 1027.31,-154.81 1037,-155.69 1046.67,-156.67 1056.31,-157.74 1065.87,-158.92 1075.36,-160.18 1084.72,-161.53 1093.95,-162.97 1103.01,-164.49 1111.86,-166.09 1120.49,-167.76 1128.84,-169.5 1136.9,-171.3 1144.62,-173.16 1151.98,-175.08 1158.92,-177.05 1165.43,-179.06 1171.46,-181.12 1176.98,-183.21 1181.96,-185.34 1186.36,-187.49 1190.16,-189.66 1193.32,-191.85 1195.81,-194.05 1197.62,-196.26 1198.71,-198.46 1199.08,-200.66 1198.7,-202.85 1197.56,-205.02 1195.66,-207.18 1192.97,-209.3 1189.52,-211.39 1185.29,-213.45 1180.28,-215.46 1174.52,-217.42 1168.02,-219.33 1160.79,-221.18 1152.85,-222.96 1144.23,-224.68 1134.96,-226.32 1125.08,-227.88 1114.61,-229.36 1103.6,-230.75 1092.1,-232.05 1080.14,-233.25 1067.78,-234.35 1055.06,-235.35 1042.04,-236.24 1028.77,-237.02 1015.31,-237.68 1001.71,-238.23 988.02,-238.66"/>
<text text-anchor="middle" x="968.32" y="-191.31" font-family="sans-serif" font-size="16.00">InternationalOperationsContext</text>
</g>
<!-- InvestigacionContext -->
<g id="node8" class="node">
<title>InvestigacionContext</title>
<polygon fill="none" stroke="black" stroke-width="2" points="745.15,-469.63 749.39,-472.22 753.22,-474.84 756.62,-477.49 759.58,-480.15 762.09,-482.81 764.13,-485.47 765.68,-488.11 766.75,-490.72 767.33,-493.29 767.4,-495.82 766.97,-498.3 766.04,-500.72 764.6,-503.07 762.66,-505.34 760.23,-507.53 757.31,-509.64 753.91,-511.65 750.05,-513.57 745.73,-515.38 740.98,-517.1 735.8,-518.7 730.23,-520.2 724.27,-521.59 717.95,-522.86 711.3,-524.03 704.33,-525.09 697.08,-526.03 689.57,-526.86 681.83,-527.59 673.89,-528.2 665.77,-528.71 657.5,-529.12 649.12,-529.43 640.65,-529.63 632.12,-529.74 623.56,-529.75 615.01,-529.68 606.48,-529.51 598,-529.26 589.61,-528.92 581.33,-528.5 573.18,-528 565.18,-527.42 557.36,-526.76 549.75,-526.03 542.35,-525.23 535.2,-524.36 528.3,-523.42 521.67,-522.41 515.33,-521.33 509.29,-520.19 503.57,-518.98 498.17,-517.7 493.1,-516.37 488.37,-514.96 483.99,-513.5 479.96,-511.97 476.28,-510.38 472.97,-508.73 470.02,-507.02 467.43,-505.26 465.21,-503.43 463.35,-501.55 461.85,-499.62 460.71,-497.64 459.93,-495.61 459.5,-493.53 459.43,-491.42 459.7,-489.26 460.31,-487.07 461.26,-484.86 462.55,-482.61 464.16,-480.35 466.1,-478.08 468.35,-475.8 470.92,-473.52 473.8,-471.25 476.97,-468.99 480.44,-466.75 484.21,-464.55 488.25,-462.38 492.57,-460.25 497.16,-458.18 502.02,-456.18 507.13,-454.24 512.49,-452.39 518.08,-450.62 523.91,-448.95 529.97,-447.39 536.23,-445.94 542.7,-444.6 549.36,-443.4 556.2,-442.32 563.2,-441.39 570.36,-440.6 577.67,-439.96 585.09,-439.47 592.63,-439.15 600.26,-438.98 607.96,-438.98 615.72,-439.14 623.53,-439.46 631.34,-439.95 639.16,-440.61 646.95,-441.42 654.7,-442.4 662.38,-443.53 669.97,-444.81 677.44,-446.25 684.77,-447.82 691.94,-449.52 698.92,-451.36 705.69,-453.31 712.22,-455.38 718.49,-457.55 724.48,-459.82 730.16,-462.17 735.51,-464.59 740.51,-467.08 745.15,-469.63"/>
<text text-anchor="middle" x="606.32" y="-483.9" font-family="sans-serif" font-size="16.00">InvestigacionContext</text>
</g>
<!-- InvestigacionContext&#45;&gt;FinancialContext -->
<g id="edge6" class="edge">
<title>InvestigacionContext&#45;&gt;FinancialContext</title>
<path fill="none" stroke="black" stroke-width="2" d="M494.9,-459.08C452.53,-448 403.96,-434.6 360.32,-420.84 314.84,-406.49 264.75,-388.39 224.27,-373.17"/>
<text text-anchor="middle" x="435.82" y="-411.24" font-family="sans-serif" font-size="12.00"> &#160;&#160;&#160;&#160;&#160;&#160;&#160;&#160;&#160;&#160;&#160;&#160;&#160;&#160;&#160;&#160;&#160;&#160;&#160;&#160;&#160;&#160;&#160;&#160;&#160;&#160;&#160;&#160;&#160;&#160;&#160;&#160;&#160;&#160;&#160;&#160;&#160;&#160;&#160;</text>
<polygon fill="white" stroke="transparent" points="217.27,-364.17 217.27,-381.17 231.27,-381.17 231.27,-364.17 217.27,-364.17"/>
<text text-anchor="start" x="219.27" y="-369.57" font-family="sans-serif" font-size="12.00">D</text>
<polygon fill="white" stroke="transparent" points="470.9,-449.08 470.9,-468.08 486.9,-468.08 486.9,-449.08 470.9,-449.08"/>
<polyline fill="none" stroke="black" points="486.9,-449.08 486.9,-468.08 "/>
<text text-anchor="start" x="473.9" y="-455.48" font-family="sans-serif" font-size="12.00">U</text>
<polygon fill="white" stroke="transparent" points="486.9,-449.08 486.9,-468.08 519.9,-468.08 519.9,-449.08 486.9,-449.08"/>
<polygon fill="none" stroke="black" points="486.9,-449.08 486.9,-468.08 519.9,-468.08 519.9,-449.08 486.9,-449.08"/>
<text text-anchor="start" x="489.9" y="-455.48" font-family="sans-serif" font-size="12.00">OHS</text>
</g>
<!-- InvestigacionContext&#45;&gt;IngenieriaDatosContext -->
<g id="edge7" class="edge">
<title>InvestigacionContext&#45;&gt;IngenieriaDatosContext</title>
<path fill="none" stroke="black" stroke-width="2" d="M547.78,-443.55C539.51,-436.37 531.42,-428.7 524.32,-420.84 514.72,-410.21 505.69,-397.58 497.98,-385.6"/>
<text text-anchor="middle" x="599.82" y="-411.24" font-family="sans-serif" font-size="12.00"> &#160;&#160;&#160;&#160;&#160;&#160;&#160;&#160;&#160;&#160;&#160;&#160;&#160;&#160;&#160;&#160;&#160;&#160;&#160;&#160;&#160;&#160;&#160;&#160;&#160;&#160;&#160;&#160;&#160;&#160;&#160;&#160;&#160;&#160;&#160;&#160;&#160;&#160;&#160;</text>
<polygon fill="white" stroke="transparent" points="490.98,-376.6 490.98,-393.6 504.98,-393.6 504.98,-376.6 490.98,-376.6"/>
<text text-anchor="start" x="492.98" y="-382" font-family="sans-serif" font-size="12.00">D</text>
<polygon fill="white" stroke="transparent" points="540.78,-434.55 540.78,-451.55 554.78,-451.55 554.78,-434.55 540.78,-434.55"/>
<text text-anchor="start" x="542.78" y="-439.95" font-family="sans-serif" font-size="12.00">U</text>
</g>
<!-- InvestigacionContext&#45;&gt;InternationalOperationsContext -->
<g id="edge8" class="edge">
<title>InvestigacionContext&#45;&gt;InternationalOperationsContext</title>
<path fill="none" stroke="black" stroke-width="2" d="M659.5,-443.11C665.57,-436.2 671.09,-428.71 675.32,-420.84 702.75,-369.77 660.86,-336.69 698.32,-292.46 723.49,-262.74 758.5,-242.18 794.98,-227.97"/>
<text text-anchor="middle" x="773.82" y="-338.05" font-family="sans-serif" font-size="12.00"> &#160;&#160;&#160;&#160;&#160;&#160;&#160;&#160;&#160;&#160;&#160;&#160;&#160;&#160;&#160;&#160;&#160;&#160;&#160;&#160;&#160;&#160;&#160;&#160;&#160;&#160;&#160;&#160;&#160;&#160;&#160;&#160;&#160;&#160;&#160;&#160;&#160;&#160;&#160;</text>
<polygon fill="white" stroke="transparent" points="771.98,-217.97 771.98,-236.97 787.98,-236.97 787.98,-217.97 771.98,-217.97"/>
<polyline fill="none" stroke="black" points="787.98,-217.97 787.98,-236.97 "/>
<text text-anchor="start" x="774.98" y="-224.37" font-family="sans-serif" font-size="12.00">D</text>
<polygon fill="white" stroke="transparent" points="787.98,-217.97 787.98,-236.97 817.98,-236.97 817.98,-217.97 787.98,-217.97"/>
<polygon fill="none" stroke="black" points="787.98,-217.97 787.98,-236.97 817.98,-236.97 817.98,-217.97 787.98,-217.97"/>
<text text-anchor="start" x="790.98" y="-224.37" font-family="sans-serif" font-size="12.00">ACL</text>
<polygon fill="white" stroke="transparent" points="635.5,-433.11 635.5,-452.11 651.5,-452.11 651.5,-433.11 635.5,-433.11"/>
<polyline fill="none" stroke="black" points="651.5,-433.11 651.5,-452.11 "/>
<text text-anchor="start" x="638.5" y="-439.51" font-family="sans-serif" font-size="12.00">U</text>
<polygon fill="white" stroke="transparent" points="651.5,-433.11 651.5,-452.11 684.5,-452.11 684.5,-433.11 651.5,-433.11"/>
<polygon fill="none" stroke="black" points="651.5,-433.11 651.5,-452.11 684.5,-452.11 684.5,-433.11 651.5,-433.11"/>
<text text-anchor="start" x="654.5" y="-439.51" font-family="sans-serif" font-size="12.00">OHS</text>
</g>
<!-- LegalContext -->
<g id="node9" class="node">
<title>LegalContext</title>
<polygon fill="none" stroke="black" stroke-width="2" points="944.68,-383.05 937.95,-382.28 931.35,-381.39 924.9,-380.39 918.64,-379.29 912.58,-378.09 906.74,-376.79 901.16,-375.4 895.86,-373.92 890.85,-372.36 886.15,-370.72 881.78,-369 877.75,-367.22 874.09,-365.37 870.79,-363.46 867.87,-361.5 865.34,-359.48 863.19,-357.43 861.44,-355.34 860.08,-353.21 859.11,-351.06 858.54,-348.89 858.34,-346.7 858.53,-344.5 859.08,-342.29 860,-340.09 861.27,-337.89 862.87,-335.7 864.79,-333.53 867.02,-331.38 869.54,-329.25 872.34,-327.16 875.4,-325.1 878.7,-323.09 882.22,-321.12 885.95,-319.2 889.86,-317.34 893.95,-315.53 898.18,-313.79 902.56,-312.12 907.04,-310.53 911.64,-309.01 916.31,-307.57 921.06,-306.22 925.87,-304.95 930.72,-303.78 935.6,-302.7 940.5,-301.72 945.42,-300.85 950.33,-300.07 955.24,-299.41 960.13,-298.85 964.99,-298.4 969.83,-298.06 974.63,-297.84 979.4,-297.74 984.12,-297.75 988.79,-297.88 993.41,-298.12 997.98,-298.48 1002.48,-298.96 1006.93,-299.56 1011.32,-300.27 1015.64,-301.1 1019.89,-302.04 1024.07,-303.09 1028.17,-304.25 1032.19,-305.52 1036.13,-306.89 1039.97,-308.36 1043.73,-309.93 1047.38,-311.59 1050.91,-313.33 1054.34,-315.16 1057.64,-317.07 1060.8,-319.05 1063.82,-321.1 1066.68,-323.21 1069.38,-325.38 1071.91,-327.6 1074.24,-329.86 1076.38,-332.16 1078.3,-334.48 1080,-336.83 1081.46,-339.2 1082.67,-341.57 1083.62,-343.95 1084.3,-346.32 1084.69,-348.67 1084.79,-351.01 1084.58,-353.32 1084.06,-355.59 1083.21,-357.83 1082.04,-360.01 1080.54,-362.14 1078.69,-364.21 1076.51,-366.21 1073.98,-368.14 1071.12,-369.98 1067.91,-371.74 1064.37,-373.42 1060.5,-374.99 1056.3,-376.47 1051.8,-377.84 1046.99,-379.11 1041.9,-380.26 1036.53,-381.3 1030.91,-382.22 1025.05,-383.02 1018.97,-383.7 1012.69,-384.26 1006.25,-384.7 999.65,-385.01 992.93,-385.19 986.11,-385.25 979.22,-385.19 972.28,-385 965.33,-384.7 958.4,-384.27 951.5,-383.72 944.68,-383.05"/>
<text text-anchor="middle" x="975.32" y="-337.35" font-family="sans-serif" font-size="16.00">LegalContext</text>
</g>
<!-- InvestigacionContext&#45;&gt;LegalContext -->
<g id="edge5" class="edge">
<title>InvestigacionContext&#45;&gt;LegalContext</title>
<path fill="none" stroke="black" stroke-width="2" d="M697.53,-450.97C758.04,-427.26 836.71,-396.45 894.88,-373.66"/>
<text text-anchor="middle" x="877.82" y="-411.24" font-family="sans-serif" font-size="12.00"> &#160;&#160;&#160;&#160;&#160;&#160;&#160;&#160;&#160;&#160;&#160;&#160;&#160;&#160;&#160;&#160;&#160;&#160;&#160;&#160;&#160;&#160;&#160;&#160;&#160;&#160;&#160;&#160;&#160;&#160;&#160;&#160;&#160;&#160;&#160;&#160;&#160;&#160;&#160;</text>
<polygon fill="white" stroke="transparent" points="887.88,-364.66 887.88,-381.66 901.88,-381.66 901.88,-364.66 887.88,-364.66"/>
<text text-anchor="start" x="889.88" y="-370.06" font-family="sans-serif" font-size="12.00">D</text>
<polygon fill="white" stroke="transparent" points="673.53,-440.97 673.53,-459.97 689.53,-459.97 689.53,-440.97 673.53,-440.97"/>
<polyline fill="none" stroke="black" points="689.53,-440.97 689.53,-459.97 "/>
<text text-anchor="start" x="676.53" y="-447.37" font-family="sans-serif" font-size="12.00">U</text>
<polygon fill="white" stroke="transparent" points="689.53,-440.97 689.53,-459.97 722.53,-459.97 722.53,-440.97 689.53,-440.97"/>
<polygon fill="none" stroke="black" points="689.53,-440.97 689.53,-459.97 722.53,-459.97 722.53,-440.97 689.53,-440.97"/>
<text text-anchor="start" x="692.53" y="-447.37" font-family="sans-serif" font-size="12.00">OHS</text>
</g>
<!-- LegalContext&#45;&gt;InternationalOperationsContext -->
<g id="edge9" class="edge">
<title>LegalContext&#45;&gt;InternationalOperationsContext</title>
<path fill="none" stroke="black" stroke-width="2" d="M973.26,-297.71C972.36,-279.29 971.32,-257.74 970.42,-239.24"/>
<text text-anchor="middle" x="1047.82" y="-264.86" font-family="sans-serif" font-size="12.00"> &#160;&#160;&#160;&#160;&#160;&#160;&#160;&#160;&#160;&#160;&#160;&#160;&#160;&#160;&#160;&#160;&#160;&#160;&#160;&#160;&#160;&#160;&#160;&#160;&#160;&#160;&#160;&#160;&#160;&#160;&#160;&#160;&#160;&#160;&#160;&#160;&#160;&#160;&#160;</text>
<polygon fill="white" stroke="transparent" points="947.42,-229.24 947.42,-248.24 963.42,-248.24 963.42,-229.24 947.42,-229.24"/>
<polyline fill="none" stroke="black" points="963.42,-229.24 963.42,-248.24 "/>
<text text-anchor="start" x="950.42" y="-235.64" font-family="sans-serif" font-size="12.00">D</text>
<polygon fill="white" stroke="transparent" points="963.42,-229.24 963.42,-248.24 993.42,-248.24 993.42,-229.24 963.42,-229.24"/>
<polygon fill="none" stroke="black" points="963.42,-229.24 963.42,-248.24 993.42,-248.24 993.42,-229.24 963.42,-229.24"/>
<text text-anchor="start" x="966.42" y="-235.64" font-family="sans-serif" font-size="12.00">ACL</text>
<polygon fill="white" stroke="transparent" points="966.26,-288.71 966.26,-305.71 980.26,-305.71 980.26,-288.71 966.26,-288.71"/>
<text text-anchor="start" x="968.26" y="-294.11" font-family="sans-serif" font-size="12.00">U</text>
</g>
</g>
</svg>
