<svg width="2000px" height="796px"
 viewBox="0.00 0.00 2051.62 816.58" xmlns="http://www.w3.org/2000/svg" xmlns:xlink="http://www.w3.org/1999/xlink">
<g id="graph0" class="graph" transform="scale(1.0 1.0) rotate(0) translate(4 812.58)">
<title>ContextMapGraph</title>
<polygon fill="white" stroke="transparent" points="-4,4 -4,-812.58 2047.62,-812.58 2047.62,4 -4,4"/>
<!-- AnaliticaContext -->
<g id="node1" class="node">
<title>AnaliticaContext</title>
<polygon fill="none" stroke="black" stroke-width="2" points="1135.45,-234.1 1127.26,-233.96 1119.14,-233.71 1111.13,-233.33 1103.26,-232.83 1095.55,-232.22 1088.05,-231.49 1080.77,-230.64 1073.76,-229.69 1067.02,-228.63 1060.59,-227.46 1054.49,-226.19 1048.74,-224.81 1043.36,-223.35 1038.36,-221.79 1033.75,-220.14 1029.56,-218.41 1025.78,-216.61 1022.43,-214.73 1019.5,-212.78 1017.01,-210.77 1014.95,-208.7 1013.31,-206.58 1012.11,-204.42 1011.32,-202.22 1010.94,-199.98 1010.97,-197.72 1011.38,-195.44 1012.18,-193.14 1013.34,-190.84 1014.85,-188.53 1016.7,-186.23 1018.87,-183.94 1021.34,-181.67 1024.09,-179.42 1027.11,-177.21 1030.39,-175.03 1033.89,-172.9 1037.61,-170.81 1041.53,-168.78 1045.63,-166.81 1049.89,-164.9 1054.31,-163.07 1058.87,-161.31 1063.54,-159.64 1068.33,-158.04 1073.21,-156.54 1078.19,-155.14 1083.24,-153.83 1088.35,-152.62 1093.53,-151.52 1098.76,-150.52 1104.03,-149.64 1109.34,-148.87 1114.69,-148.21 1120.06,-147.67 1125.46,-147.24 1130.88,-146.94 1136.32,-146.75 1141.78,-146.68 1147.24,-146.74 1152.71,-146.91 1158.18,-147.2 1163.65,-147.61 1169.12,-148.14 1174.57,-148.78 1180.01,-149.53 1185.42,-150.4 1190.8,-151.37 1196.15,-152.45 1201.45,-153.63 1206.69,-154.92 1211.86,-156.3 1216.95,-157.77 1221.95,-159.32 1226.85,-160.97 1231.62,-162.69 1236.26,-164.49 1240.74,-166.35 1245.06,-168.28 1249.19,-170.27 1253.11,-172.32 1256.81,-174.41 1260.27,-176.55 1263.46,-178.72 1266.38,-180.92 1269,-183.15 1271.3,-185.4 1273.27,-187.67 1274.89,-189.94 1276.14,-192.21 1277.01,-194.48 1277.49,-196.73 1277.56,-198.97 1277.22,-201.19 1276.45,-203.38 1275.24,-205.53 1273.6,-207.64 1271.51,-209.71 1268.98,-211.72 1266.01,-213.68 1262.61,-215.57 1258.77,-217.4 1254.5,-219.15 1249.83,-220.83 1244.75,-222.43 1239.29,-223.93 1233.46,-225.35 1227.28,-226.67 1220.77,-227.9 1213.96,-229.02 1206.87,-230.04 1199.53,-230.95 1191.97,-231.75 1184.21,-232.44 1176.3,-233.01 1168.25,-233.47 1160.11,-233.8 1151.91,-234.02 1143.67,-234.12 1135.45,-234.1"/>
<text text-anchor="middle" x="1143.42" y="-186.6" font-family="sans-serif" font-size="16.00">AnaliticaContext</text>
</g>
<!-- TransaccionesVentaContext -->
<g id="node2" class="node">
<title>TransaccionesVentaContext</title>
<polygon fill="none" stroke="black" stroke-width="2" points="323.3,-13.46 333.32,-15.14 342.97,-16.91 352.2,-18.76 360.99,-20.68 369.28,-22.67 377.05,-24.72 384.26,-26.82 390.89,-28.96 396.9,-31.14 402.28,-33.35 407,-35.59 411.04,-37.85 414.4,-40.11 417.05,-42.38 419,-44.64 420.23,-46.9 420.76,-49.15 420.58,-51.37 419.69,-53.57 418.12,-55.74 415.86,-57.88 412.94,-59.97 409.38,-62.03 405.2,-64.03 400.41,-65.99 395.06,-67.89 389.16,-69.73 382.76,-71.52 375.87,-73.24 368.53,-74.89 360.79,-76.48 352.67,-77.99 344.21,-79.43 335.45,-80.8 326.42,-82.09 317.16,-83.3 307.71,-84.43 298.1,-85.48 288.37,-86.44 278.55,-87.32 268.68,-88.11 258.78,-88.81 248.89,-89.42 239.04,-89.94 229.25,-90.37 219.54,-90.7 209.95,-90.93 200.49,-91.07 191.18,-91.11 182.05,-91.05 173.1,-90.89 164.35,-90.63 155.82,-90.27 147.52,-89.8 139.45,-89.23 131.63,-88.56 124.06,-87.78 116.74,-86.9 109.7,-85.91 102.92,-84.82 96.41,-83.63 90.18,-82.34 84.23,-80.95 78.56,-79.47 73.17,-77.88 68.07,-76.21 63.27,-74.45 58.75,-72.6 54.54,-70.67 50.62,-68.66 47.01,-66.58 43.72,-64.43 40.74,-62.22 38.08,-59.95 35.76,-57.63 33.78,-55.27 32.14,-52.87 30.86,-50.44 29.95,-47.99 29.41,-45.52 29.26,-43.05 29.51,-40.58 30.16,-38.12 31.23,-35.68 32.73,-33.26 34.67,-30.88 37.05,-28.55 39.88,-26.27 43.17,-24.04 46.93,-21.89 51.16,-19.81 55.87,-17.82 61.04,-15.92 66.69,-14.12 72.81,-12.42 79.4,-10.84 86.44,-9.37 93.94,-8.03 101.87,-6.81 110.23,-5.73 118.99,-4.79 128.14,-3.98 137.65,-3.32 147.51,-2.8 157.67,-2.42 168.13,-2.2 178.83,-2.12 189.75,-2.18 200.86,-2.39 212.1,-2.75 223.46,-3.24 234.87,-3.88 246.31,-4.65 257.73,-5.55 269.08,-6.58 280.33,-7.73 291.41,-9 302.3,-10.38 312.94,-11.87 323.3,-13.46"/>
<text text-anchor="middle" x="210.42" y="-44.97" font-family="sans-serif" font-size="16.00">TransaccionesVentaContext</text>
</g>
<!-- AnaliticaContext&#45;&gt;TransaccionesVentaContext -->
<g id="edge1" class="edge">
<title>AnaliticaContext&#45;&gt;TransaccionesVentaContext</title>
<path fill="none" stroke="black" stroke-width="2" d="M1026.39,-177.49C884.58,-162.34 638.62,-133.73 429.42,-97.53 400.47,-92.52 369.55,-86.31 340.33,-80.05"/>
<text text-anchor="middle" x="700.92" y="-118.93" font-family="sans-serif" font-size="12.00"> &#160;&#160;&#160;&#160;&#160;&#160;&#160;&#160;&#160;&#160;&#160;&#160;&#160;&#160;&#160;&#160;&#160;&#160;&#160;&#160;&#160;&#160;&#160;&#160;&#160;&#160;&#160;&#160;&#160;&#160;&#160;&#160;&#160;&#160;&#160;&#160;&#160;&#160;&#160;</text>
<polygon fill="white" stroke="transparent" points="333.33,-71.05 333.33,-88.05 347.33,-88.05 347.33,-71.05 333.33,-71.05"/>
<text text-anchor="start" x="335.33" y="-76.45" font-family="sans-serif" font-size="12.00">D</text>
<polygon fill="white" stroke="transparent" points="1002.39,-167.49 1002.39,-186.49 1018.39,-186.49 1018.39,-167.49 1002.39,-167.49"/>
<polyline fill="none" stroke="black" points="1018.39,-167.49 1018.39,-186.49 "/>
<text text-anchor="start" x="1005.39" y="-173.89" font-family="sans-serif" font-size="12.00">U</text>
<polygon fill="white" stroke="transparent" points="1018.39,-167.49 1018.39,-186.49 1051.39,-186.49 1051.39,-167.49 1018.39,-167.49"/>
<polygon fill="none" stroke="black" points="1018.39,-167.49 1018.39,-186.49 1051.39,-186.49 1051.39,-167.49 1018.39,-167.49"/>
<text text-anchor="start" x="1021.39" y="-173.89" font-family="sans-serif" font-size="12.00">OHS</text>
</g>
<!-- InformeEstadoMercadoContext -->
<g id="node3" class="node">
<title>InformeEstadoMercadoContext</title>
<polygon fill="none" stroke="black" stroke-width="2" points="453.88,-61.08 449.88,-58.35 446.45,-55.6 443.61,-52.85 441.38,-50.1 439.76,-47.37 438.77,-44.67 438.41,-42 438.68,-39.37 439.6,-36.81 441.17,-34.3 443.38,-31.87 446.22,-29.52 449.7,-27.25 453.79,-25.09 458.51,-23.02 463.81,-21.05 469.71,-19.2 476.16,-17.46 483.16,-15.84 490.68,-14.33 498.69,-12.95 507.18,-11.7 516.1,-10.56 525.43,-9.55 535.15,-8.66 545.21,-7.9 555.58,-7.26 566.22,-6.73 577.11,-6.33 588.2,-6.04 599.45,-5.85 610.83,-5.78 622.3,-5.82 633.83,-5.95 645.37,-6.18 656.88,-6.51 668.33,-6.93 679.69,-7.44 690.92,-8.02 701.98,-8.69 712.85,-9.44 723.48,-10.26 733.85,-11.15 743.93,-12.11 753.69,-13.13 763.11,-14.22 772.16,-15.37 780.82,-16.58 789.06,-17.84 796.88,-19.16 804.25,-20.53 811.15,-21.95 817.57,-23.43 823.51,-24.95 828.95,-26.53 833.87,-28.15 838.29,-29.82 842.18,-31.54 845.55,-33.3 848.4,-35.11 850.71,-36.96 852.51,-38.85 853.77,-40.78 854.52,-42.75 854.75,-44.75 854.46,-46.79 853.67,-48.86 852.39,-50.96 850.61,-53.07 848.34,-55.21 845.6,-57.37 842.4,-59.53 838.75,-61.7 834.65,-63.87 830.12,-66.03 825.16,-68.18 819.8,-70.32 814.05,-72.42 807.91,-74.49 801.4,-76.52 794.54,-78.51 787.33,-80.43 779.8,-82.29 771.95,-84.08 763.81,-85.79 755.38,-87.41 746.7,-88.93 737.76,-90.35 728.59,-91.65 719.21,-92.84 709.64,-93.9 699.89,-94.83 689.99,-95.61 679.96,-96.26 669.81,-96.75 659.57,-97.09 649.27,-97.27 638.92,-97.3 628.55,-97.16 618.19,-96.85 607.85,-96.38 597.58,-95.75 587.39,-94.95 577.31,-94 567.37,-92.88 557.59,-91.6 548.01,-90.18 538.65,-88.61 529.55,-86.89 520.72,-85.05 512.2,-83.08 504.02,-80.98 496.21,-78.78 488.78,-76.48 481.78,-74.08 475.21,-71.6 469.12,-69.05 463.52,-66.44 458.43,-63.78 453.88,-61.08"/>
<text text-anchor="middle" x="652.42" y="-44.97" font-family="sans-serif" font-size="16.00">InformeEstadoMercadoContext</text>
</g>
<!-- AnaliticaContext&#45;&gt;InformeEstadoMercadoContext -->
<g id="edge2" class="edge">
<title>AnaliticaContext&#45;&gt;InformeEstadoMercadoContext</title>
<path fill="none" stroke="black" stroke-width="2" d="M1052.79,-163.62C973.96,-141.2 859.11,-108.54 772.62,-83.95"/>
<text text-anchor="middle" x="1002.92" y="-118.93" font-family="sans-serif" font-size="12.00"> &#160;&#160;&#160;&#160;&#160;&#160;&#160;&#160;&#160;&#160;&#160;&#160;&#160;&#160;&#160;&#160;&#160;&#160;&#160;&#160;&#160;&#160;&#160;&#160;&#160;&#160;&#160;&#160;&#160;&#160;&#160;&#160;&#160;&#160;&#160;&#160;&#160;&#160;&#160;</text>
<polygon fill="white" stroke="transparent" points="765.62,-74.95 765.62,-91.95 779.62,-91.95 779.62,-74.95 765.62,-74.95"/>
<text text-anchor="start" x="767.62" y="-80.35" font-family="sans-serif" font-size="12.00">D</text>
<polygon fill="white" stroke="transparent" points="1028.79,-153.62 1028.79,-172.62 1044.79,-172.62 1044.79,-153.62 1028.79,-153.62"/>
<polyline fill="none" stroke="black" points="1044.79,-153.62 1044.79,-172.62 "/>
<text text-anchor="start" x="1031.79" y="-160.02" font-family="sans-serif" font-size="12.00">U</text>
<polygon fill="white" stroke="transparent" points="1044.79,-153.62 1044.79,-172.62 1077.79,-172.62 1077.79,-153.62 1044.79,-153.62"/>
<polygon fill="none" stroke="black" points="1044.79,-153.62 1044.79,-172.62 1077.79,-172.62 1077.79,-153.62 1044.79,-153.62"/>
<text text-anchor="start" x="1047.79" y="-160.02" font-family="sans-serif" font-size="12.00">OHS</text>
</g>
<!-- TransaccionesArrendamientoContext -->
<g id="node4" class="node">
<title>TransaccionesArrendamientoContext</title>
<polygon fill="none" stroke="black" stroke-width="2" points="960.17,-20.3 970.27,-18.1 980.81,-16 991.76,-14 1003.06,-12.11 1014.69,-10.33 1026.59,-8.68 1038.73,-7.17 1051.06,-5.79 1063.54,-4.55 1076.14,-3.46 1088.8,-2.53 1101.5,-1.76 1114.2,-1.14 1126.85,-0.68 1139.43,-0.39 1151.91,-0.26 1164.24,-0.3 1176.4,-0.49 1188.37,-0.85 1200.11,-1.36 1211.6,-2.03 1222.82,-2.85 1233.74,-3.81 1244.36,-4.92 1254.64,-6.16 1264.57,-7.52 1274.14,-9.01 1283.33,-10.61 1292.14,-12.32 1300.54,-14.12 1308.53,-16.02 1316.1,-17.99 1323.24,-20.05 1329.94,-22.16 1336.19,-24.33 1341.99,-26.55 1347.34,-28.81 1352.22,-31.09 1356.62,-33.4 1360.55,-35.73 1364,-38.06 1366.96,-40.39 1369.42,-42.71 1371.39,-45.02 1372.85,-47.31 1373.8,-49.57 1374.24,-51.8 1374.16,-53.99 1373.55,-56.13 1372.41,-58.24 1370.74,-60.29 1368.53,-62.29 1365.78,-64.23 1362.49,-66.11 1358.64,-67.93 1354.26,-69.69 1349.32,-71.38 1343.84,-73.01 1337.82,-74.56 1331.26,-76.05 1324.16,-77.47 1316.54,-78.81 1308.4,-80.09 1299.76,-81.29 1290.62,-82.43 1281,-83.49 1270.91,-84.47 1260.39,-85.38 1249.44,-86.22 1238.1,-86.99 1226.38,-87.67 1214.32,-88.28 1201.94,-88.82 1189.29,-89.27 1176.39,-89.65 1163.28,-89.94 1150,-90.15 1136.58,-90.28 1123.08,-90.32 1109.54,-90.27 1095.99,-90.14 1082.49,-89.91 1069.08,-89.59 1055.8,-89.17 1042.72,-88.66 1029.86,-88.05 1017.29,-87.34 1005.04,-86.52 993.17,-85.61 981.71,-84.6 970.72,-83.48 960.23,-82.25 950.28,-80.93 940.92,-79.5 932.18,-77.97 924.1,-76.34 916.7,-74.62 910.01,-72.8 904.07,-70.88 898.89,-68.88 894.5,-66.8 890.9,-64.63 888.11,-62.39 886.15,-60.09 885.01,-57.72 884.69,-55.29 885.2,-52.82 886.54,-50.3 888.68,-47.76 891.62,-45.19 895.35,-42.61 899.84,-40.02 905.08,-37.43 911.03,-34.86 917.68,-32.32 924.99,-29.81 932.93,-27.34 941.46,-24.92 950.55,-22.57 960.17,-20.3"/>
<text text-anchor="middle" x="1143.42" y="-44.97" font-family="sans-serif" font-size="16.00">TransaccionesArrendamientoContext</text>
</g>
<!-- AnaliticaContext&#45;&gt;TransaccionesArrendamientoContext -->
<g id="edge3" class="edge">
<title>AnaliticaContext&#45;&gt;TransaccionesArrendamientoContext</title>
<path fill="none" stroke="black" stroke-width="2" d="M1143.42,-146.36C1143.42,-128.57 1143.42,-108.05 1143.42,-90.51"/>
<text text-anchor="middle" x="1218.92" y="-118.93" font-family="sans-serif" font-size="12.00"> &#160;&#160;&#160;&#160;&#160;&#160;&#160;&#160;&#160;&#160;&#160;&#160;&#160;&#160;&#160;&#160;&#160;&#160;&#160;&#160;&#160;&#160;&#160;&#160;&#160;&#160;&#160;&#160;&#160;&#160;&#160;&#160;&#160;&#160;&#160;&#160;&#160;&#160;&#160;</text>
<polygon fill="white" stroke="transparent" points="1136.42,-81.51 1136.42,-98.51 1150.42,-98.51 1150.42,-81.51 1136.42,-81.51"/>
<text text-anchor="start" x="1138.42" y="-86.91" font-family="sans-serif" font-size="12.00">D</text>
<polygon fill="white" stroke="transparent" points="1119.42,-136.36 1119.42,-155.36 1135.42,-155.36 1135.42,-136.36 1119.42,-136.36"/>
<polyline fill="none" stroke="black" points="1135.42,-136.36 1135.42,-155.36 "/>
<text text-anchor="start" x="1122.42" y="-142.76" font-family="sans-serif" font-size="12.00">U</text>
<polygon fill="white" stroke="transparent" points="1135.42,-136.36 1135.42,-155.36 1168.42,-155.36 1168.42,-136.36 1135.42,-136.36"/>
<polygon fill="none" stroke="black" points="1135.42,-136.36 1135.42,-155.36 1168.42,-155.36 1168.42,-136.36 1135.42,-136.36"/>
<text text-anchor="start" x="1138.42" y="-142.76" font-family="sans-serif" font-size="12.00">OHS</text>
</g>
<!-- PropiedadesContext -->
<g id="node5" class="node">
<title>PropiedadesContext</title>
<polygon fill="none" stroke="black" stroke-width="2" points="1550.2,-5.88 1559.48,-5.23 1568.79,-4.69 1578.09,-4.29 1587.34,-4.01 1596.52,-3.86 1605.57,-3.83 1614.47,-3.94 1623.19,-4.19 1631.7,-4.56 1639.95,-5.07 1647.94,-5.71 1655.62,-6.47 1662.99,-7.37 1670,-8.39 1676.66,-9.53 1682.94,-10.79 1688.82,-12.17 1694.29,-13.65 1699.35,-15.25 1703.98,-16.95 1708.18,-18.74 1711.95,-20.62 1715.28,-22.59 1718.19,-24.64 1720.66,-26.75 1722.71,-28.94 1724.34,-31.18 1725.56,-33.47 1726.38,-35.8 1726.8,-38.17 1726.85,-40.56 1726.53,-42.97 1725.85,-45.4 1724.84,-47.83 1723.5,-50.25 1721.84,-52.67 1719.88,-55.06 1717.64,-57.43 1715.13,-59.77 1712.36,-62.06 1709.34,-64.31 1706.08,-66.5 1702.61,-68.63 1698.92,-70.7 1695.03,-72.69 1690.95,-74.61 1686.69,-76.45 1682.25,-78.19 1677.64,-79.85 1672.87,-81.41 1667.94,-82.88 1662.86,-84.24 1657.63,-85.49 1652.26,-86.64 1646.75,-87.68 1641.11,-88.61 1635.33,-89.43 1629.42,-90.13 1623.39,-90.72 1617.24,-91.2 1610.97,-91.56 1604.58,-91.81 1598.09,-91.94 1591.5,-91.96 1584.82,-91.87 1578.05,-91.66 1571.21,-91.35 1564.3,-90.93 1557.33,-90.41 1550.33,-89.78 1543.29,-89.05 1536.25,-88.22 1529.2,-87.29 1522.18,-86.27 1515.21,-85.16 1508.29,-83.97 1501.46,-82.68 1494.74,-81.32 1488.14,-79.87 1481.7,-78.35 1475.44,-76.76 1469.39,-75.1 1463.56,-73.38 1458,-71.59 1452.71,-69.75 1447.74,-67.85 1443.1,-65.91 1438.82,-63.91 1434.93,-61.88 1431.44,-59.81 1428.38,-57.71 1425.78,-55.59 1423.64,-53.44 1421.99,-51.27 1420.85,-49.08 1420.22,-46.89 1420.12,-44.7 1420.55,-42.51 1421.53,-40.32 1423.05,-38.15 1425.12,-36 1427.73,-33.87 1430.88,-31.77 1434.57,-29.7 1438.78,-27.67 1443.5,-25.7 1448.71,-23.77 1454.41,-21.9 1460.55,-20.09 1467.13,-18.35 1474.12,-16.69 1481.49,-15.1 1489.2,-13.6 1497.24,-12.19 1505.56,-10.88 1514.13,-9.66 1522.91,-8.55 1531.88,-7.55 1540.99,-6.66 1550.2,-5.88"/>
<text text-anchor="middle" x="1581.42" y="-44.97" font-family="sans-serif" font-size="16.00">PropiedadesContext</text>
</g>
<!-- AnaliticaContext&#45;&gt;PropiedadesContext -->
<g id="edge4" class="edge">
<title>AnaliticaContext&#45;&gt;PropiedadesContext</title>
<path fill="none" stroke="black" stroke-width="2" d="M1229.69,-161.89C1303.96,-138.22 1410.93,-104.12 1487.37,-79.75"/>
<text text-anchor="middle" x="1437.92" y="-118.93" font-family="sans-serif" font-size="12.00"> &#160;&#160;&#160;&#160;&#160;&#160;&#160;&#160;&#160;&#160;&#160;&#160;&#160;&#160;&#160;&#160;&#160;&#160;&#160;&#160;&#160;&#160;&#160;&#160;&#160;&#160;&#160;&#160;&#160;&#160;&#160;&#160;&#160;&#160;&#160;&#160;&#160;&#160;&#160;</text>
<polygon fill="white" stroke="transparent" points="1480.37,-70.75 1480.37,-87.75 1494.37,-87.75 1494.37,-70.75 1480.37,-70.75"/>
<text text-anchor="start" x="1482.37" y="-76.15" font-family="sans-serif" font-size="12.00">D</text>
<polygon fill="white" stroke="transparent" points="1205.69,-151.89 1205.69,-170.89 1221.69,-170.89 1221.69,-151.89 1205.69,-151.89"/>
<polyline fill="none" stroke="black" points="1221.69,-151.89 1221.69,-170.89 "/>
<text text-anchor="start" x="1208.69" y="-158.29" font-family="sans-serif" font-size="12.00">U</text>
<polygon fill="white" stroke="transparent" points="1221.69,-151.89 1221.69,-170.89 1254.69,-170.89 1254.69,-151.89 1221.69,-151.89"/>
<polygon fill="none" stroke="black" points="1221.69,-151.89 1221.69,-170.89 1254.69,-170.89 1254.69,-151.89 1221.69,-151.89"/>
<text text-anchor="start" x="1224.69" y="-158.29" font-family="sans-serif" font-size="12.00">OHS</text>
</g>
<!-- InquilinosContext -->
<g id="node6" class="node">
<title>InquilinosContext</title>
<polygon fill="none" stroke="black" stroke-width="2" points="1802.27,-20.3 1807.79,-18.1 1813.55,-16 1819.54,-14 1825.71,-12.11 1832.07,-10.33 1838.57,-8.68 1845.21,-7.17 1851.94,-5.79 1858.77,-4.55 1865.65,-3.46 1872.57,-2.53 1879.51,-1.76 1886.45,-1.14 1893.37,-0.68 1900.24,-0.39 1907.06,-0.26 1913.8,-0.3 1920.44,-0.49 1926.98,-0.85 1933.4,-1.36 1939.68,-2.03 1945.81,-2.85 1951.78,-3.81 1957.58,-4.92 1963.2,-6.16 1968.63,-7.52 1973.86,-9.01 1978.88,-10.61 1983.7,-12.32 1988.29,-14.12 1992.65,-16.02 1996.79,-17.99 2000.69,-20.05 2004.35,-22.16 2007.77,-24.33 2010.94,-26.55 2013.86,-28.81 2016.53,-31.09 2018.94,-33.4 2021.09,-35.73 2022.97,-38.06 2024.59,-40.39 2025.93,-42.71 2027.01,-45.02 2027.81,-47.31 2028.33,-49.57 2028.57,-51.8 2028.52,-53.99 2028.19,-56.13 2027.57,-58.24 2026.65,-60.29 2025.45,-62.29 2023.94,-64.23 2022.14,-66.11 2020.04,-67.93 2017.64,-69.69 2014.95,-71.38 2011.95,-73.01 2008.66,-74.56 2005.08,-76.05 2001.2,-77.47 1997.03,-78.81 1992.59,-80.09 1987.86,-81.29 1982.86,-82.43 1977.61,-83.49 1972.1,-84.47 1966.34,-85.38 1960.36,-86.22 1954.16,-86.99 1947.76,-87.67 1941.17,-88.28 1934.4,-88.82 1927.49,-89.27 1920.44,-89.65 1913.27,-89.94 1906.01,-90.15 1898.68,-90.28 1891.31,-90.32 1883.9,-90.27 1876.5,-90.14 1869.12,-89.91 1861.79,-89.59 1854.54,-89.17 1847.39,-88.66 1840.36,-88.05 1833.49,-87.34 1826.79,-86.52 1820.3,-85.61 1814.04,-84.6 1808.04,-83.48 1802.3,-82.25 1796.87,-80.93 1791.75,-79.5 1786.98,-77.97 1782.56,-76.34 1778.51,-74.62 1774.86,-72.8 1771.61,-70.88 1768.78,-68.88 1766.38,-66.8 1764.41,-64.63 1762.89,-62.39 1761.82,-60.09 1761.19,-57.72 1761.02,-55.29 1761.3,-52.82 1762.03,-50.3 1763.2,-47.76 1764.81,-45.19 1766.85,-42.61 1769.3,-40.02 1772.16,-37.43 1775.42,-34.86 1779.05,-32.32 1783.04,-29.81 1787.38,-27.34 1792.05,-24.92 1797.02,-22.57 1802.27,-20.3"/>
<text text-anchor="middle" x="1902.42" y="-44.97" font-family="sans-serif" font-size="16.00">InquilinosContext</text>
</g>
<!-- AnaliticaContext&#45;&gt;InquilinosContext -->
<g id="edge5" class="edge">
<title>AnaliticaContext&#45;&gt;InquilinosContext</title>
<path fill="none" stroke="black" stroke-width="2" d="M1261.29,-177.12C1384.54,-163 1583.09,-136.62 1751.42,-97.53 1768.96,-93.46 1787.41,-88.34 1805.16,-82.98"/>
<text text-anchor="middle" x="1727.92" y="-118.93" font-family="sans-serif" font-size="12.00"> &#160;&#160;&#160;&#160;&#160;&#160;&#160;&#160;&#160;&#160;&#160;&#160;&#160;&#160;&#160;&#160;&#160;&#160;&#160;&#160;&#160;&#160;&#160;&#160;&#160;&#160;&#160;&#160;&#160;&#160;&#160;&#160;&#160;&#160;&#160;&#160;&#160;&#160;&#160;</text>
<polygon fill="white" stroke="transparent" points="1798.16,-73.98 1798.16,-90.98 1812.16,-90.98 1812.16,-73.98 1798.16,-73.98"/>
<text text-anchor="start" x="1800.16" y="-79.38" font-family="sans-serif" font-size="12.00">D</text>
<polygon fill="white" stroke="transparent" points="1237.29,-167.12 1237.29,-186.12 1253.29,-186.12 1253.29,-167.12 1237.29,-167.12"/>
<polyline fill="none" stroke="black" points="1253.29,-167.12 1253.29,-186.12 "/>
<text text-anchor="start" x="1240.29" y="-173.52" font-family="sans-serif" font-size="12.00">U</text>
<polygon fill="white" stroke="transparent" points="1253.29,-167.12 1253.29,-186.12 1286.29,-186.12 1286.29,-167.12 1253.29,-167.12"/>
<polygon fill="none" stroke="black" points="1253.29,-167.12 1253.29,-186.12 1286.29,-186.12 1286.29,-167.12 1253.29,-167.12"/>
<text text-anchor="start" x="1256.29" y="-173.52" font-family="sans-serif" font-size="12.00">OHS</text>
</g>
<!-- CapturaDatosManualGlobalContext -->
<g id="node7" class="node">
<title>CapturaDatosManualGlobalContext</title>
<polygon fill="none" stroke="black" stroke-width="2" points="1022.39,-795.52 1010.46,-797.3 998.22,-798.96 985.71,-800.51 972.98,-801.94 960.08,-803.25 947.06,-804.42 933.96,-805.45 920.83,-806.34 907.72,-807.08 894.67,-807.67 881.72,-808.11 868.91,-808.39 856.28,-808.51 843.87,-808.48 831.71,-808.29 819.83,-807.95 808.27,-807.45 797.04,-806.8 786.17,-806 775.69,-805.05 765.62,-803.96 755.97,-802.73 746.75,-801.37 737.98,-799.89 729.68,-798.29 721.84,-796.57 714.48,-794.75 707.6,-792.83 701.2,-790.82 695.29,-788.73 689.86,-786.57 684.93,-784.34 680.48,-782.06 676.51,-779.73 673.02,-777.36 670.01,-774.96 667.48,-772.55 665.42,-770.12 663.82,-767.68 662.69,-765.25 662.03,-762.83 661.82,-760.43 662.06,-758.06 662.76,-755.72 663.92,-753.42 665.52,-751.17 667.57,-748.96 670.07,-746.82 673.01,-744.73 676.41,-742.71 680.25,-740.76 684.54,-738.88 689.27,-737.08 694.45,-735.35 700.08,-733.71 706.15,-732.15 712.66,-730.68 719.61,-729.29 727,-727.99 734.82,-726.78 743.06,-725.65 751.72,-724.62 760.79,-723.67 770.26,-722.82 780.11,-722.05 790.33,-721.37 800.91,-720.79 811.82,-720.29 823.05,-719.88 834.57,-719.56 846.35,-719.33 858.38,-719.18 870.61,-719.12 883.02,-719.16 895.58,-719.27 908.24,-719.48 920.97,-719.78 933.73,-720.16 946.48,-720.63 959.17,-721.19 971.77,-721.83 984.22,-722.57 996.49,-723.39 1008.52,-724.3 1020.26,-725.3 1031.69,-726.38 1042.73,-727.55 1053.36,-728.81 1063.53,-730.16 1073.18,-731.59 1082.29,-733.1 1090.81,-734.7 1098.7,-736.37 1105.94,-738.13 1112.47,-739.96 1118.28,-741.86 1123.33,-743.84 1127.61,-745.88 1131.09,-747.98 1133.75,-750.14 1135.58,-752.35 1136.57,-754.61 1136.72,-756.92 1136.02,-759.26 1134.47,-761.63 1132.09,-764.02 1128.87,-766.43 1124.84,-768.85 1120.01,-771.26 1114.4,-773.68 1108.04,-776.07 1100.95,-778.44 1093.17,-780.78 1084.73,-783.08 1075.66,-785.33 1066.01,-787.52 1055.81,-789.64 1045.11,-791.69 1033.96,-793.65 1022.39,-795.52"/>
<text text-anchor="middle" x="881.42" y="-756.85" font-family="sans-serif" font-size="16.00">CapturaDatosManualGlobalContext</text>
</g>
<!-- ProcesamientoLimpiezaDatosContext -->
<g id="node8" class="node">
<title>ProcesamientoLimpiezaDatosContext</title>
<polygon fill="none" stroke="black" stroke-width="2" points="1355.16,-593.55 1363.15,-596.01 1370.5,-598.53 1377.19,-601.07 1383.18,-603.64 1388.44,-606.23 1392.96,-608.81 1396.71,-611.4 1399.67,-613.97 1401.83,-616.51 1403.17,-619.03 1403.68,-621.5 1403.37,-623.92 1402.22,-626.29 1400.24,-628.6 1397.44,-630.84 1393.82,-633.01 1389.4,-635.09 1384.19,-637.09 1378.21,-639.01 1371.49,-640.83 1364.05,-642.55 1355.91,-644.18 1347.12,-645.71 1337.71,-647.14 1327.7,-648.46 1317.15,-649.69 1306.09,-650.8 1294.57,-651.82 1282.62,-652.73 1270.3,-653.55 1257.65,-654.26 1244.72,-654.87 1231.56,-655.38 1218.2,-655.8 1204.71,-656.12 1191.13,-656.34 1177.5,-656.48 1163.88,-656.53 1150.3,-656.49 1136.81,-656.36 1123.44,-656.15 1110.26,-655.86 1097.28,-655.48 1084.55,-655.03 1072.1,-654.49 1059.97,-653.88 1048.18,-653.19 1036.77,-652.43 1025.76,-651.59 1015.17,-650.68 1005.03,-649.69 995.35,-648.64 986.15,-647.5 977.46,-646.3 969.27,-645.02 961.6,-643.68 954.46,-642.26 947.86,-640.77 941.81,-639.21 936.29,-637.59 931.33,-635.9 926.92,-634.14 923.05,-632.32 919.74,-630.44 916.97,-628.5 914.75,-626.5 913.07,-624.45 911.92,-622.34 911.31,-620.19 911.23,-618 911.67,-615.78 912.62,-613.52 914.1,-611.23 916.07,-608.92 918.55,-606.6 921.53,-604.27 925,-601.94 928.95,-599.61 933.38,-597.3 938.29,-595.02 943.67,-592.76 949.5,-590.54 955.79,-588.37 962.53,-586.25 969.72,-584.2 977.33,-582.23 985.37,-580.33 993.82,-578.53 1002.67,-576.82 1011.92,-575.22 1021.55,-573.73 1031.54,-572.36 1041.88,-571.13 1052.56,-570.02 1063.55,-569.06 1074.84,-568.24 1086.4,-567.57 1098.21,-567.06 1110.24,-566.7 1122.48,-566.51 1134.88,-566.47 1147.43,-566.6 1160.08,-566.89 1172.81,-567.35 1185.59,-567.96 1198.36,-568.74 1211.1,-569.67 1223.77,-570.76 1236.33,-571.99 1248.73,-573.37 1260.94,-574.89 1272.91,-576.54 1284.61,-578.31 1295.98,-580.21 1306.99,-582.21 1317.6,-584.31 1327.76,-586.5 1337.43,-588.78 1346.58,-591.13 1355.16,-593.55"/>
<text text-anchor="middle" x="1143.42" y="-611.17" font-family="sans-serif" font-size="16.00">ProcesamientoLimpiezaDatosContext</text>
</g>
<!-- CapturaDatosManualGlobalContext&#45;&gt;ProcesamientoLimpiezaDatosContext -->
<g id="edge6" class="edge">
<title>CapturaDatosManualGlobalContext&#45;&gt;ProcesamientoLimpiezaDatosContext</title>
<path fill="none" stroke="black" stroke-width="2" d="M952.32,-720.77C989.75,-700.24 1035.54,-675.13 1072.92,-654.64"/>
<text text-anchor="middle" x="1095.92" y="-685.13" font-family="sans-serif" font-size="12.00"> &#160;&#160;&#160;&#160;&#160;&#160;&#160;&#160;&#160;&#160;&#160;&#160;&#160;&#160;&#160;&#160;&#160;&#160;&#160;&#160;&#160;&#160;&#160;&#160;&#160;&#160;&#160;&#160;&#160;&#160;&#160;&#160;&#160;&#160;&#160;&#160;&#160;&#160;&#160;</text>
<polygon fill="white" stroke="transparent" points="1049.92,-644.64 1049.92,-663.64 1065.92,-663.64 1065.92,-644.64 1049.92,-644.64"/>
<polyline fill="none" stroke="black" points="1065.92,-644.64 1065.92,-663.64 "/>
<text text-anchor="start" x="1052.92" y="-651.04" font-family="sans-serif" font-size="12.00">D</text>
<polygon fill="white" stroke="transparent" points="1065.92,-644.64 1065.92,-663.64 1095.92,-663.64 1095.92,-644.64 1065.92,-644.64"/>
<polygon fill="none" stroke="black" points="1065.92,-644.64 1065.92,-663.64 1095.92,-663.64 1095.92,-644.64 1065.92,-644.64"/>
<text text-anchor="start" x="1068.92" y="-651.04" font-family="sans-serif" font-size="12.00">ACL</text>
<polygon fill="white" stroke="transparent" points="945.32,-711.77 945.32,-728.77 959.32,-728.77 959.32,-711.77 945.32,-711.77"/>
<text text-anchor="start" x="947.32" y="-717.17" font-family="sans-serif" font-size="12.00">U</text>
</g>
<!-- ValidacionDatosContext -->
<g id="node9" class="node">
<title>ValidacionDatosContext</title>
<polygon fill="none" stroke="black" stroke-width="2" points="1196.87,-431.16 1207.27,-432.04 1217.46,-433.02 1227.4,-434.11 1237.04,-435.31 1246.35,-436.6 1255.29,-437.98 1263.82,-439.46 1271.91,-441.02 1279.53,-442.66 1286.64,-444.37 1293.24,-446.16 1299.29,-448 1304.77,-449.91 1309.66,-451.87 1313.96,-453.88 1317.65,-455.94 1320.73,-458.03 1323.19,-460.15 1325.02,-462.3 1326.25,-464.48 1326.86,-466.66 1326.87,-468.86 1326.28,-471.07 1325.12,-473.27 1323.4,-475.47 1321.13,-477.66 1318.33,-479.83 1315.04,-481.98 1311.27,-484.11 1307.04,-486.2 1302.39,-488.26 1297.34,-490.28 1291.92,-492.26 1286.16,-494.18 1280.08,-496.05 1273.72,-497.87 1267.1,-499.62 1260.25,-501.3 1253.2,-502.91 1245.97,-504.45 1238.6,-505.91 1231.1,-507.28 1223.51,-508.57 1215.83,-509.77 1208.1,-510.88 1200.33,-511.89 1192.54,-512.8 1184.75,-513.61 1176.97,-514.32 1169.22,-514.92 1161.51,-515.41 1153.85,-515.78 1146.25,-516.05 1138.71,-516.2 1131.26,-516.24 1123.89,-516.16 1116.61,-515.97 1109.43,-515.66 1102.34,-515.23 1095.37,-514.68 1088.5,-514.02 1081.74,-513.24 1075.11,-512.35 1068.59,-511.34 1062.21,-510.23 1055.96,-509.01 1049.84,-507.68 1043.88,-506.25 1038.06,-504.72 1032.41,-503.09 1026.94,-501.38 1021.64,-499.57 1016.54,-497.69 1011.64,-495.73 1006.97,-493.69 1002.52,-491.6 998.33,-489.44 994.4,-487.22 990.76,-484.96 987.41,-482.66 984.38,-480.33 981.69,-477.97 979.35,-475.59 977.39,-473.19 975.81,-470.79 974.64,-468.4 973.9,-466.01 973.61,-463.64 973.76,-461.3 974.4,-458.98 975.51,-456.71 977.13,-454.48 979.25,-452.31 981.88,-450.19 985.04,-448.14 988.72,-446.17 992.92,-444.27 997.65,-442.46 1002.89,-440.74 1008.65,-439.11 1014.9,-437.59 1021.65,-436.17 1028.87,-434.85 1036.55,-433.65 1044.66,-432.57 1053.18,-431.6 1062.08,-430.76 1071.34,-430.04 1080.93,-429.44 1090.8,-428.97 1100.93,-428.63 1111.28,-428.41 1121.8,-428.32 1132.46,-428.36 1143.21,-428.52 1154.02,-428.81 1164.83,-429.22 1175.61,-429.75 1186.3,-430.4 1196.87,-431.16"/>
<text text-anchor="middle" x="1143.42" y="-468.96" font-family="sans-serif" font-size="16.00">ValidacionDatosContext</text>
</g>
<!-- ProcesamientoLimpiezaDatosContext&#45;&gt;ValidacionDatosContext -->
<g id="edge7" class="edge">
<title>ProcesamientoLimpiezaDatosContext&#45;&gt;ValidacionDatosContext</title>
<path fill="none" stroke="black" stroke-width="2" d="M1143.42,-566.5C1143.42,-550.3 1143.42,-532.28 1143.42,-516.47"/>
<text text-anchor="middle" x="1218.92" y="-538.62" font-family="sans-serif" font-size="12.00"> &#160;&#160;&#160;&#160;&#160;&#160;&#160;&#160;&#160;&#160;&#160;&#160;&#160;&#160;&#160;&#160;&#160;&#160;&#160;&#160;&#160;&#160;&#160;&#160;&#160;&#160;&#160;&#160;&#160;&#160;&#160;&#160;&#160;&#160;&#160;&#160;&#160;&#160;&#160;</text>
<polygon fill="white" stroke="transparent" points="1136.42,-507.47 1136.42,-524.47 1150.42,-524.47 1150.42,-507.47 1136.42,-507.47"/>
<text text-anchor="start" x="1138.42" y="-512.87" font-family="sans-serif" font-size="12.00">D</text>
<polygon fill="white" stroke="transparent" points="1136.42,-557.5 1136.42,-574.5 1150.42,-574.5 1150.42,-557.5 1136.42,-557.5"/>
<text text-anchor="start" x="1138.42" y="-562.9" font-family="sans-serif" font-size="12.00">U</text>
</g>
<!-- EnriquecimientoDatosContext -->
<g id="node10" class="node">
<title>EnriquecimientoDatosContext</title>
<polygon fill="none" stroke="black" stroke-width="2" points="989.47,-359.73 980.77,-357.57 972.56,-355.35 964.85,-353.06 957.7,-350.73 951.12,-348.37 945.15,-345.97 939.81,-343.55 935.13,-341.11 931.12,-338.68 927.81,-336.24 925.21,-333.82 923.33,-331.41 922.17,-329.04 921.75,-326.69 922.07,-324.38 923.11,-322.12 924.88,-319.91 927.37,-317.75 930.56,-315.66 934.44,-313.63 939,-311.67 944.2,-309.78 950.03,-307.97 956.46,-306.24 963.45,-304.58 970.99,-303.01 979.03,-301.53 987.54,-300.13 996.49,-298.81 1005.83,-297.59 1015.53,-296.45 1025.54,-295.4 1035.84,-294.44 1046.37,-293.57 1057.1,-292.78 1067.99,-292.09 1078.99,-291.48 1090.07,-290.97 1101.19,-290.54 1112.32,-290.2 1123.41,-289.95 1134.44,-289.78 1145.36,-289.7 1156.15,-289.71 1166.79,-289.81 1177.23,-289.99 1187.46,-290.27 1197.45,-290.62 1207.18,-291.07 1216.62,-291.61 1225.77,-292.23 1234.61,-292.94 1243.11,-293.74 1251.27,-294.63 1259.08,-295.61 1266.53,-296.67 1273.61,-297.82 1280.31,-299.06 1286.62,-300.39 1292.56,-301.81 1298.1,-303.3 1303.25,-304.89 1308.01,-306.55 1312.38,-308.29 1316.35,-310.11 1319.92,-312.01 1323.11,-313.98 1325.9,-316.01 1328.29,-318.11 1330.29,-320.27 1331.9,-322.48 1333.11,-324.75 1333.92,-327.06 1334.35,-329.4 1334.37,-331.78 1333.99,-334.18 1333.22,-336.6 1332.04,-339.03 1330.46,-341.47 1328.47,-343.89 1326.08,-346.31 1323.27,-348.7 1320.05,-351.06 1316.41,-353.38 1312.35,-355.65 1307.88,-357.86 1302.99,-360.01 1297.69,-362.08 1291.96,-364.07 1285.83,-365.97 1279.28,-367.77 1272.33,-369.47 1264.98,-371.05 1257.24,-372.5 1249.11,-373.83 1240.62,-375.03 1231.77,-376.09 1222.59,-377 1213.08,-377.77 1203.26,-378.39 1193.16,-378.85 1182.81,-379.16 1172.22,-379.3 1161.43,-379.29 1150.46,-379.13 1139.35,-378.8 1128.12,-378.32 1116.82,-377.69 1105.48,-376.9 1094.14,-375.97 1082.84,-374.89 1071.61,-373.68 1060.5,-372.33 1049.54,-370.85 1038.79,-369.26 1028.28,-367.55 1018.05,-365.74 1008.15,-363.82 998.61,-361.82 989.47,-359.73"/>
<text text-anchor="middle" x="1143.42" y="-327.47" font-family="sans-serif" font-size="16.00">EnriquecimientoDatosContext</text>
</g>
<!-- ValidacionDatosContext&#45;&gt;EnriquecimientoDatosContext -->
<g id="edge8" class="edge">
<title>ValidacionDatosContext&#45;&gt;EnriquecimientoDatosContext</title>
<path fill="none" stroke="black" stroke-width="2" d="M1143.42,-428.39C1143.42,-412.71 1143.42,-394.95 1143.42,-379"/>
<text text-anchor="middle" x="1218.92" y="-400.69" font-family="sans-serif" font-size="12.00"> &#160;&#160;&#160;&#160;&#160;&#160;&#160;&#160;&#160;&#160;&#160;&#160;&#160;&#160;&#160;&#160;&#160;&#160;&#160;&#160;&#160;&#160;&#160;&#160;&#160;&#160;&#160;&#160;&#160;&#160;&#160;&#160;&#160;&#160;&#160;&#160;&#160;&#160;&#160;</text>
<polygon fill="white" stroke="transparent" points="1136.42,-370 1136.42,-387 1150.42,-387 1150.42,-370 1136.42,-370"/>
<text text-anchor="start" x="1138.42" y="-375.4" font-family="sans-serif" font-size="12.00">D</text>
<polygon fill="white" stroke="transparent" points="1136.42,-419.39 1136.42,-436.39 1150.42,-436.39 1150.42,-419.39 1136.42,-419.39"/>
<text text-anchor="start" x="1138.42" y="-424.79" font-family="sans-serif" font-size="12.00">U</text>
</g>
<!-- EnriquecimientoDatosContext&#45;&gt;AnaliticaContext -->
<g id="edge9" class="edge">
<title>EnriquecimientoDatosContext&#45;&gt;AnaliticaContext</title>
<path fill="none" stroke="black" stroke-width="2" d="M1143.42,-289.36C1143.42,-272.07 1143.42,-251.94 1143.42,-234.43"/>
<text text-anchor="middle" x="1218.92" y="-255.66" font-family="sans-serif" font-size="12.00"> &#160;&#160;&#160;&#160;&#160;&#160;&#160;&#160;&#160;&#160;&#160;&#160;&#160;&#160;&#160;&#160;&#160;&#160;&#160;&#160;&#160;&#160;&#160;&#160;&#160;&#160;&#160;&#160;&#160;&#160;&#160;&#160;&#160;&#160;&#160;&#160;&#160;&#160;&#160;</text>
<polygon fill="white" stroke="transparent" points="1136.42,-225.43 1136.42,-242.43 1150.42,-242.43 1150.42,-225.43 1136.42,-225.43"/>
<text text-anchor="start" x="1138.42" y="-230.83" font-family="sans-serif" font-size="12.00">D</text>
<polygon fill="white" stroke="transparent" points="1136.42,-280.36 1136.42,-297.36 1150.42,-297.36 1150.42,-280.36 1136.42,-280.36"/>
<text text-anchor="start" x="1138.42" y="-285.76" font-family="sans-serif" font-size="12.00">U</text>
</g>
<!-- IngestaDatosFuenteGlobalContext -->
<g id="node11" class="node">
<title>IngestaDatosFuenteGlobalContext</title>
<polygon fill="none" stroke="black" stroke-width="2" points="1538.09,-725 1550.21,-726.63 1561.9,-728.36 1573.1,-730.16 1583.76,-732.05 1593.84,-733.99 1603.31,-736 1612.11,-738.07 1620.22,-740.18 1627.6,-742.33 1634.22,-744.51 1640.06,-746.73 1645.09,-748.96 1649.3,-751.2 1652.68,-753.45 1655.2,-755.7 1656.88,-757.95 1657.71,-760.18 1657.69,-762.4 1656.83,-764.6 1655.15,-766.77 1652.64,-768.91 1649.34,-771.01 1645.27,-773.07 1640.46,-775.09 1634.92,-777.06 1628.69,-778.97 1621.82,-780.84 1614.32,-782.64 1606.25,-784.38 1597.63,-786.06 1588.52,-787.67 1578.96,-789.21 1568.98,-790.69 1558.64,-792.08 1547.97,-793.41 1537.02,-794.65 1525.83,-795.81 1514.45,-796.9 1502.91,-797.9 1491.26,-798.81 1479.54,-799.64 1467.78,-800.38 1456.02,-801.03 1444.3,-801.59 1432.64,-802.05 1421.08,-802.42 1409.64,-802.7 1398.35,-802.87 1387.24,-802.95 1376.32,-802.93 1365.62,-802.8 1355.14,-802.58 1344.92,-802.25 1334.96,-801.82 1325.27,-801.28 1315.86,-800.64 1306.75,-799.9 1297.94,-799.05 1289.43,-798.1 1281.23,-797.04 1273.35,-795.88 1265.8,-794.62 1258.56,-793.25 1251.66,-791.8 1245.08,-790.24 1238.84,-788.59 1232.94,-786.85 1227.38,-785.03 1222.17,-783.12 1217.32,-781.13 1212.82,-779.07 1208.69,-776.94 1204.93,-774.75 1201.56,-772.5 1198.58,-770.2 1195.99,-767.85 1193.82,-765.47 1192.08,-763.05 1190.77,-760.61 1189.91,-758.15 1189.51,-755.69 1189.58,-753.23 1190.14,-750.77 1191.2,-748.33 1192.78,-745.92 1194.87,-743.54 1197.51,-741.2 1200.69,-738.91 1204.42,-736.68 1208.72,-734.52 1213.59,-732.43 1219.03,-730.43 1225.04,-728.51 1231.63,-726.69 1238.79,-724.98 1246.51,-723.37 1254.8,-721.88 1263.63,-720.51 1273,-719.27 1282.88,-718.16 1293.26,-717.18 1304.12,-716.34 1315.42,-715.64 1327.15,-715.08 1339.26,-714.67 1351.72,-714.4 1364.5,-714.28 1377.56,-714.3 1390.84,-714.46 1404.31,-714.77 1417.91,-715.22 1431.61,-715.81 1445.34,-716.53 1459.06,-717.38 1472.72,-718.36 1486.25,-719.46 1499.61,-720.68 1512.73,-722.02 1525.58,-723.46 1538.09,-725"/>
<text text-anchor="middle" x="1406.42" y="-756.85" font-family="sans-serif" font-size="16.00">IngestaDatosFuenteGlobalContext</text>
</g>
<!-- IngestaDatosFuenteGlobalContext&#45;&gt;ProcesamientoLimpiezaDatosContext -->
<g id="edge10" class="edge">
<title>IngestaDatosFuenteGlobalContext&#45;&gt;ProcesamientoLimpiezaDatosContext</title>
<path fill="none" stroke="black" stroke-width="2" d="M1325.01,-715.18C1290.31,-696.22 1250.14,-674.28 1216.42,-655.85"/>
<text text-anchor="middle" x="1357.92" y="-685.13" font-family="sans-serif" font-size="12.00"> &#160;&#160;&#160;&#160;&#160;&#160;&#160;&#160;&#160;&#160;&#160;&#160;&#160;&#160;&#160;&#160;&#160;&#160;&#160;&#160;&#160;&#160;&#160;&#160;&#160;&#160;&#160;&#160;&#160;&#160;&#160;&#160;&#160;&#160;&#160;&#160;&#160;&#160;&#160;</text>
<polygon fill="white" stroke="transparent" points="1193.42,-645.85 1193.42,-664.85 1209.42,-664.85 1209.42,-645.85 1193.42,-645.85"/>
<polyline fill="none" stroke="black" points="1209.42,-645.85 1209.42,-664.85 "/>
<text text-anchor="start" x="1196.42" y="-652.25" font-family="sans-serif" font-size="12.00">D</text>
<polygon fill="white" stroke="transparent" points="1209.42,-645.85 1209.42,-664.85 1239.42,-664.85 1239.42,-645.85 1209.42,-645.85"/>
<polygon fill="none" stroke="black" points="1209.42,-645.85 1209.42,-664.85 1239.42,-664.85 1239.42,-645.85 1209.42,-645.85"/>
<text text-anchor="start" x="1212.42" y="-652.25" font-family="sans-serif" font-size="12.00">ACL</text>
<polygon fill="white" stroke="transparent" points="1318.01,-706.18 1318.01,-723.18 1332.01,-723.18 1332.01,-706.18 1318.01,-706.18"/>
<text text-anchor="start" x="1320.01" y="-711.58" font-family="sans-serif" font-size="12.00">U</text>
</g>
</g>
</svg>
